<svg
  width="60"
  height="40"
  viewBox="0 0 60 40"
  fill="none"
  xmlns="http://www.w3.org/2000/svg"
>
<mask id="path-1-inside-1_694_302" fill="white">
<path
      d="M21.5056 1.7023C16.9383 2.0137 12.9703 3.74762 9.81334 6.81205C5.72103 10.7824 3.76257 16.3627 4.48238 21.9997C4.94642 25.6551 6.53219 29.0769 9.05334 31.8512C9.79507 32.6722 10.9424 33.6913 11.896 34.3742C14.1943 36.0197 16.9164 37.1343 19.697 37.559C20.7164 37.7147 21.2572 37.7536 22.4739 37.7536C23.6651 37.7571 24.0853 37.7324 25.0645 37.5944C29.6464 36.9574 33.7935 34.5972 36.7312 30.9559C37.0735 30.5335 37.7332 29.5828 38.082 29.022L36.2215 28.9362L34.6851 30.7118L34.5645 30.8498L34.6303 30.3048C34.6668 30.0041 34.7033 29.6785 34.7143 29.583L34.7587 29.4219L32.7418 29.022C32.8819 28.9163 32.982 28.8358 33.0158 28.7991L32.7418 29.022C32.3678 29.304 31.7085 29.7651 31.262 30.0483C30.4727 30.5508 29.0075 31.354 28.9674 31.3116C28.9517 31.293 28.4075 30.1417 27.8412 28.9364H25.9307L26.1612 29.4219C26.8408 30.8621 27.3597 32.0087 27.3414 32.0264C27.2902 32.0759 26.0991 32.5005 25.5181 32.6739C24.8495 32.8756 23.7497 33.1481 23.0956 33.2719C22.2443 33.4347 21.5135 33.5338 21.4404 33.4984C21.4039 33.4807 21.2322 33.3604 21.0568 33.233C19.5697 32.1431 18.2104 30.7737 17.0522 29.2061L16.2215 28.0853C16.053 27.7444 15.9786 27.5361 15.8793 27.136H15.7149L15.4043 26.5309C14.816 25.3985 14.2716 24.0716 13.9099 22.8897C13.7564 22.3837 13.4495 21.2018 13.3947 20.9045L13.3691 20.7771L14.0049 20.7347L14.0895 20.7326C14.0631 20.7376 13.9681 20.7475 14.1292 20.7316V19.0332C13.703 19.0779 13.8946 19.055 13.4239 19.0857L13.0914 19.1069L13.0695 19.0078C13.022 18.792 12.9379 17.7906 12.8977 17.0085C12.8466 15.9752 12.8904 14.528 12.9964 13.661L13.0183 13.477H13.2302C14.4689 13.477 16.4383 13.1125 17.761 12.6348C17.9729 12.5605 18.1556 12.5074 18.1702 12.518L19.7816 11.8492C19.7706 11.8103 19.9022 11.7254 20.2274 11.552C21.0677 11.1026 22.1456 10.3949 22.8399 9.83577C23.1724 9.56684 23.9068 8.92989 24.0639 8.77419C24.1406 8.6928 24.2174 8.62911 24.2283 8.62911C24.2393 8.62911 24.517 8.8485 24.8495 9.1139C25.5912 9.71546 26.585 10.6638 27.2062 11.3715C27.6739 11.9059 28.4302 12.4422 28.4302 12.4989L30.8454 12.5342C31.6347 11.6814 32.3435 11.2123 32.9354 10.3418C33.3191 9.77208 33.816 8.9582 34.006 8.5831C34.0645 8.47341 34.1193 8.3814 34.1302 8.3814C34.1412 8.3814 34.2435 8.47341 34.3531 8.5831C35.0656 9.2979 35.8841 10.3489 36.5235 11.3715C36.8268 11.8599 37.0911 12.2451 37.0911 12.3406H38.8302C37.8918 10.0494 36.9781 8.56214 35.1528 6.79436C32.2078 3.9387 28.4553 2.20479 24.2826 1.76954C23.7783 1.71646 21.9441 1.674 21.5056 1.7023Z"
    />
</mask>
<path
    d="M24.3228 3.46453L24.2143 4.33278L24.2116 4.33244L24.3228 3.46453ZM25.6235 3.67685L25.0148 4.3054L25.0148 4.30539L25.6235 3.67685ZM24.6553 5.28337L25.3613 5.80029L25.3598 5.8023L24.6553 5.28337ZM23.9391 6.1751L24.0159 7.04673L23.9776 7.0501H23.9391V6.1751ZM23.391 5.8814L22.9642 6.64531L22.955 6.64001L23.391 5.8814ZM18.8749 3.99532L18.6546 4.84212L18.647 4.84016L18.6394 4.83805L18.8749 3.99532ZM17.0911 4.12271L16.7097 4.91023L16.6818 4.89671L16.6549 4.88124L17.0911 4.12271ZM21.3047 3.40437L21.379 4.27625L21.3714 4.27682L21.3047 3.40437ZM27.9218 4.28548L27.6336 5.11165L27.6321 5.11113L27.9218 4.28548ZM31.5939 6.1114L31.1111 6.84118L31.1071 6.8385L31.5939 6.1114ZM32.7449 6.96775L33.5608 6.65179L33.564 6.65994L33.567 6.66814L32.7449 6.96775ZM32.1164 8.19918L32.8689 8.64565L32.8689 8.64573L32.1164 8.19918ZM30.1141 10.9841L30.7751 11.5575L30.7732 11.5596L30.1141 10.9841ZM29.6464 11.483L28.9718 12.0403L28.9613 12.0276L28.9513 12.0144L29.6464 11.483ZM25.7624 7.48792L26.2964 6.79475L26.2976 6.79569L25.7624 7.48792ZM25.4226 7.21899L24.8637 7.89227L24.8525 7.88298L24.8417 7.87333L25.4226 7.21899ZM25.7003 6.75543L26.3912 7.29227L26.3876 7.29688L25.7003 6.75543ZM27.2276 4.39518L26.4476 3.99867L26.4501 3.99377L27.2276 4.39518ZM17.596 5.42138L17.7825 4.56649L17.7826 4.5665L17.596 5.42138ZM21.3887 6.74128L21.7692 5.9533L21.7715 5.95447L21.3887 6.74128ZM20.837 8.99183L20.3392 8.27223L20.3409 8.27104L20.837 8.99183ZM19.0064 10.064L18.338 10.6287L18.326 10.6145L18.3146 10.5998L19.0064 10.064ZM16.3172 8.41858L15.5261 8.79249L15.5255 8.79119L16.3172 8.41858ZM17.3695 10.7788L16.8949 10.0437L16.927 10.023L16.9608 10.0051L17.3695 10.7788ZM15.813 11.2495L15.6088 10.3986L15.6128 10.3977L15.813 11.2495ZM13.2626 11.5255L14.1154 11.7211L14.1069 11.7581L14.0953 11.7942L13.2626 11.5255ZM13.3393 11.1645L12.4809 10.9948L12.4812 10.9934L13.3393 11.1645ZM14.1943 8.22042L13.3757 7.91142L13.3763 7.90987L14.1943 8.22042ZM14.9172 4.68085L14.3084 5.3094L14.3084 5.30939L14.9172 4.68085ZM13.0689 6.39449L12.2557 6.07152L12.2603 6.06004L12.2651 6.04869L13.0689 6.39449ZM12.8716 6.86513L12.0654 6.52501L12.0658 6.52412L12.8716 6.86513ZM11.6074 10.9664L12.464 11.1446L12.463 11.1495L11.6074 10.9664ZM11.4795 11.5078L12.0882 12.1363L12.0882 12.1363L11.4795 11.5078ZM10.1056 11.2495L9.88441 12.096L9.88046 12.095L10.1056 11.2495ZM8.79392 10.8107L9.22431 10.0488L9.238 10.0566L9.25141 10.0648L8.79392 10.8107ZM8.95103 10.4674L8.22545 9.97836L8.22914 9.97297L8.95103 10.4674ZM12.7328 6.56788L13.2535 7.27105L13.2521 7.27208L12.7328 6.56788ZM8.28238 12.4349L8.60109 11.62L8.60262 11.6206L8.28238 12.4349ZM10.8547 13.1285L10.7177 13.9927L10.7147 13.9922L10.8547 13.1285ZM11.2347 13.2028L11.8434 12.5742L11.8435 12.5743L11.2347 13.2028ZM11.2055 13.7017L10.3343 13.6199L10.3345 13.6178L11.2055 13.7017ZM11.2566 18.4541L10.388 18.5596L10.3871 18.5515L11.2566 18.4541ZM11.3005 18.8999L11.9092 19.5285L11.8745 19.5621L11.8363 19.5916L11.3005 18.8999ZM9.81334 18.7867L9.908 17.9168L9.91435 17.9175L9.81334 18.7867ZM7.77815 18.4717L7.60306 19.3291L7.6 19.3284L7.77815 18.4717ZM6.18142 18.0648L6.79013 17.4362L6.79015 17.4363L6.18142 18.0648ZM6.36045 16.6635L5.5004 16.5025L5.50079 16.5004L6.36045 16.6635ZM7.67584 12.6578L8.46486 13.0361L8.46404 13.0378L7.67584 12.6578ZM7.47488 20.1314L7.64359 19.2728L7.64501 19.2731L7.47488 20.1314ZM11.5562 20.6197L12.248 20.0839L12.2543 20.092L12.2604 20.1003L11.5562 20.6197ZM11.6731 21.0549L10.8167 21.2343L10.8157 21.2291L11.6731 21.0549ZM13.5183 26.4761L14.3074 26.0979L14.3082 26.0996L13.5183 26.4761ZM12.6451 27.0175L12.6137 27.8919L12.6121 27.8918L12.6451 27.0175ZM8.02661 26.4867L7.85578 27.3449L7.84809 27.3433L8.02661 26.4867ZM7.48949 26.3734L7.10811 27.161L6.96236 27.0904L6.85153 26.9723L7.48949 26.3734ZM6.94507 24.9863L7.77286 24.7028L7.77309 24.7035L6.94507 24.9863ZM6.09738 20.4463L5.22296 20.4783L5.22289 20.4762L6.09738 20.4463ZM6.07545 19.8058L5.20097 19.8357L5.16133 18.6779L6.28587 18.9565L6.07545 19.8058ZM6.5468 19.9226L6.33817 20.7723L6.33638 20.7719L6.5468 19.9226ZM9.42969 28.4294L9.54653 27.5622L9.5499 27.5627L9.42969 28.4294ZM14.746 28.716V27.841H15.222L15.4806 28.2405L14.746 28.716ZM14.8995 28.9531L15.634 28.4776L15.6342 28.4778L14.8995 28.9531ZM18.3816 33.0685L18.9657 32.417L18.9663 32.4175L18.3816 33.0685ZM18.8347 33.4754L19.4194 32.8244L21.0596 34.2977L18.8555 34.3502L18.8347 33.4754ZM18.3889 33.486L18.3654 32.6113L18.3681 32.6113L18.3889 33.486ZM13.8691 32.9623L13.6693 33.8142L13.669 33.8141L13.8691 32.9623ZM12.2906 32.5165L12.672 31.7289L12.6807 31.7332L12.2906 32.5165ZM11.8851 32.2086L12.4512 31.5414L12.4559 31.5455L11.8851 32.2086ZM9.78411 30.0784L9.10919 30.6352L9.10897 30.635L9.78411 30.0784ZM8.02661 27.6596L8.27075 26.8193L8.28313 26.8229L8.29541 26.8269L8.02661 27.6596ZM33.3311 31.4443L34.1907 31.6082L34.1905 31.6089L33.3311 31.4443ZM33.0388 32.8032L33.8825 33.0355L33.8804 33.0429L33.0388 32.8032ZM32.4306 33.6426L31.9246 32.9287L31.9268 32.9272L32.4306 33.6426ZM29.6011 35.5172L28.9924 36.1458L28.9844 36.138L28.9765 36.13L29.6011 35.5172ZM28.4669 32.0007L28.0613 31.2254L28.0625 31.2248L28.4669 32.0007ZM32.4306 30.0784L32.9172 30.8056L32.9153 30.8068L32.4306 30.0784ZM33.3457 30.3323L33.727 29.5448L33.8535 29.606L33.9545 29.7038L33.3457 30.3323ZM29.1166 34.1159L29.9069 33.7404L29.9096 33.746L29.1166 34.1159ZM29.1683 35.3261L28.7287 34.5695L28.7379 34.5643L29.1683 35.3261ZM27.3414 35.9454L26.5087 35.6765L26.6539 35.2269L27.1095 35.1017L27.3414 35.9454ZM27.1789 36.4487H26.3039V36.3109L26.3462 36.1798L27.1789 36.4487ZM27.1789 36.6001H28.0539V37.7937L26.9156 37.4346L27.1789 36.6001ZM25.7867 35.496L25.4179 36.2894L25.2644 36.2181L25.1486 36.0947L25.7867 35.496ZM24.0476 33.6426L23.8473 32.7908L24.3396 32.675L24.6857 33.0438L24.0476 33.6426ZM23.8028 33.7001L23.997 34.5533L23.6025 32.8483L23.8028 33.7001ZM27.9606 32.3404L28.2767 33.1563L28.2762 33.1566L27.9606 32.3404ZM28.7366 33.3905L28.903 34.2495L28.8206 34.2655H28.7366V33.3905ZM21.4404 34.3742L20.9861 35.1221L20.9859 35.1219L21.4404 34.3742ZM19.2585 36.815L19.0687 37.6692L19.0681 37.669L19.2585 36.815ZM17.7866 36.4487L17.4805 37.2684L14.336 36.0943L17.6535 35.5839L17.7866 36.4487ZM21.8743 35.8198L22.3746 35.1019L24.1683 36.3521L22.0073 36.6846L21.8743 35.8198ZM18.3889 33.3905L17.8886 34.1083L18.4954 32.522L18.3889 33.3905ZM21.0568 33.4984L21.1486 34.3686L21.1435 34.3691L21.0568 33.4984ZM14.0895 20.7326L14.1109 21.6073L13.927 19.8728L14.0895 20.7326ZM24.4313 2.59628C24.7252 2.63301 25.0536 2.68053 25.3147 2.72291C25.4444 2.74395 25.5644 2.76485 25.658 2.78344C25.7031 2.7924 25.7535 2.80305 25.7998 2.8149C25.8212 2.82041 25.8573 2.83008 25.8976 2.84409C25.9172 2.85089 25.9523 2.86367 25.9935 2.88322C26.0159 2.89384 26.1248 2.94419 26.2323 3.0483L25.0148 4.30539C25.1205 4.40773 25.2262 4.45615 25.2442 4.46467C25.281 4.48213 25.3104 4.49266 25.323 4.49706C25.338 4.50227 25.3493 4.50562 25.3547 4.50719C25.3606 4.5089 25.3643 4.50987 25.3652 4.51009C25.3666 4.51045 25.3633 4.5096 25.3539 4.50752C25.3449 4.50555 25.3327 4.50301 25.3172 4.49992C25.2526 4.48711 25.1555 4.46997 25.0344 4.45031C24.794 4.4113 24.4867 4.36683 24.2143 4.33278L24.4313 2.59628ZM26.2323 3.04829C26.4539 3.26293 26.4902 3.51569 26.4981 3.61143C26.5074 3.72274 26.4936 3.81167 26.4858 3.85408C26.4695 3.94305 26.4429 4.01514 26.43 4.04861C26.4004 4.12576 26.3624 4.20343 26.3304 4.26559C26.2624 4.39769 26.1687 4.56119 26.067 4.73001C25.8628 5.06884 25.5944 5.48192 25.3613 5.80029L23.9493 4.76646C24.1437 4.50096 24.3831 4.13377 24.5681 3.82681C24.6609 3.67273 24.7321 3.54695 24.7744 3.46474C24.7976 3.41975 24.801 3.409 24.7962 3.42166C24.7957 3.42289 24.7773 3.4687 24.7646 3.53802C24.7586 3.57061 24.7454 3.65138 24.7541 3.75626C24.7616 3.84557 24.7961 4.09363 25.0148 4.3054L26.2323 3.04829ZM25.3598 5.8023C25.161 6.07218 24.9841 6.30487 24.8484 6.47418C24.782 6.5571 24.717 6.63529 24.6602 6.69774C24.6336 6.72699 24.5949 6.76826 24.5503 6.80831C24.5292 6.82725 24.4894 6.86184 24.4365 6.89727C24.4185 6.9093 24.2558 7.02559 24.0159 7.04673L23.8623 5.30348C23.7256 5.31552 23.6247 5.3573 23.5777 5.37889C23.5245 5.40342 23.4849 5.42839 23.4625 5.44341C23.4184 5.47295 23.3891 5.49898 23.3805 5.50677C23.3607 5.52452 23.3539 5.53315 23.3657 5.5201C23.3859 5.49795 23.4242 5.45295 23.4829 5.37973C23.5975 5.23676 23.7586 5.02536 23.9507 4.76445L25.3598 5.8023ZM23.9391 7.0501C23.8273 7.0501 23.7417 7.02804 23.7187 7.02211C23.6829 7.01289 23.6545 7.00321 23.6387 6.99756C23.6067 6.9861 23.5807 6.97483 23.5675 6.96898C23.5388 6.95629 23.5117 6.94286 23.4923 6.9331C23.4509 6.91225 23.4009 6.88571 23.3493 6.85787C23.2443 6.80116 23.1072 6.72513 22.9642 6.64525L23.8178 5.11754C23.9599 5.1969 24.0877 5.26772 24.1809 5.31805C24.2284 5.34373 24.2608 5.36076 24.2794 5.37011C24.29 5.37544 24.2872 5.37376 24.2765 5.36905C24.2723 5.36718 24.2538 5.35896 24.2274 5.34954C24.2145 5.34492 24.1886 5.33602 24.1548 5.32732C24.1374 5.32285 24.1119 5.31685 24.0806 5.31168C24.0514 5.30687 24.0016 5.3001 23.9391 5.3001V7.0501ZM22.955 6.64001C21.5494 5.8321 20.0394 5.20245 18.6546 4.84212L19.0952 3.14851C20.648 3.55253 22.3022 4.24632 23.8271 5.12279L22.955 6.64001ZM18.6394 4.83805C18.7499 4.86891 18.8239 4.86083 18.7464 4.86098C18.7091 4.86106 18.6507 4.86308 18.5706 4.86781C18.4122 4.87714 18.2098 4.89452 18.0026 4.91418C17.7967 4.93372 17.5966 4.9545 17.4408 4.97034C17.3647 4.97807 17.296 4.98495 17.2449 4.98956C17.2205 4.99177 17.1927 4.99414 17.1676 4.99572C17.1566 4.99641 17.1346 4.99771 17.1093 4.99805C17.0981 4.9982 17.0712 4.99843 17.0378 4.9963C17.0215 4.99527 16.9901 4.99288 16.9511 4.98653C16.9294 4.98299 16.8271 4.96711 16.7097 4.91023L17.4724 3.33519C17.3553 3.27848 17.2536 3.26274 17.2326 3.25932C17.1944 3.25309 17.1639 3.25079 17.1487 3.24982C17.1174 3.24783 17.0934 3.24811 17.0858 3.24821C17.0754 3.24835 17.0676 3.24867 17.0643 3.24883C17.0605 3.249 17.0581 3.24915 17.0577 3.24918C17.0569 3.24922 17.0589 3.2491 17.0649 3.24862C17.0705 3.24816 17.0779 3.24752 17.0875 3.24665C17.1273 3.24306 17.1865 3.23716 17.2638 3.22931C17.4148 3.21396 17.6237 3.19227 17.8373 3.172C18.0496 3.15186 18.2771 3.13207 18.4676 3.12084C18.5619 3.11528 18.6577 3.11116 18.7428 3.11099C18.7877 3.1109 18.9523 3.10846 19.1103 3.15259L18.6394 4.83805ZM16.6549 4.88124C16.5573 4.82514 16.267 4.62899 16.2191 4.22132C16.173 3.82934 16.3934 3.57696 16.4602 3.50763C16.5982 3.36453 16.7559 3.3035 16.7621 3.30083C16.8425 3.2662 16.9254 3.24307 16.97 3.231C17.0795 3.20135 17.2265 3.16863 17.3867 3.1356C17.7141 3.06806 18.1642 2.98545 18.642 2.90372C19.5841 2.74259 20.7054 2.57264 21.238 2.53192L21.3714 4.27682C20.932 4.31042 19.888 4.46602 18.9371 4.62867C18.4684 4.70884 18.04 4.78767 17.7402 4.84951C17.5867 4.88117 17.4829 4.90513 17.4274 4.92017C17.3894 4.93046 17.4112 4.92669 17.4548 4.90793C17.4689 4.90183 17.4977 4.88892 17.5333 4.86843C17.5601 4.85303 17.6387 4.80662 17.72 4.72226C17.7839 4.656 18.0029 4.40645 17.9571 4.01706C17.9095 3.61198 17.6212 3.41818 17.5272 3.36418L16.6549 4.88124ZM21.2304 2.53253C21.5144 2.50834 22.2094 2.51127 22.8367 2.5238C23.4628 2.5363 24.156 2.56103 24.4339 2.59662L24.2116 4.33244C24.0474 4.31141 23.46 4.2866 22.8017 4.27345C22.1447 4.26033 21.5518 4.26149 21.379 4.27621L21.2304 2.53253ZM28.21 3.45932C29.5466 3.92561 30.9289 4.6132 32.0807 5.3843L31.1071 6.8385C30.0813 6.1517 28.8328 5.53001 27.6336 5.11165L28.21 3.45932ZM32.0767 5.38165C32.351 5.56308 32.6466 5.77253 32.8787 5.94553C32.994 6.03151 33.1006 6.11363 33.1838 6.18189C33.2241 6.21494 33.2687 6.25277 33.3091 6.29062C33.3284 6.30875 33.3578 6.33715 33.3886 6.37185C33.394 6.37802 33.4969 6.48654 33.5608 6.65179L31.9289 7.2837C31.9665 7.38088 32.013 7.44735 32.0295 7.4704C32.0511 7.50068 32.0699 7.52244 32.0795 7.53329C32.0902 7.54533 32.0986 7.55394 32.103 7.55839C32.1077 7.56313 32.1108 7.56607 32.1118 7.56693C32.1125 7.56764 32.1018 7.55783 32.0737 7.53476C32.0201 7.49078 31.9376 7.42672 31.8328 7.34859C31.6246 7.19339 31.3557 7.00297 31.1111 6.84117L32.0767 5.38165ZM33.567 6.66814C33.6406 6.87005 33.6197 7.04405 33.6146 7.08719C33.6063 7.15688 33.5917 7.21408 33.5822 7.248C33.5626 7.31786 33.5376 7.38242 33.518 7.42973C33.4769 7.52926 33.4213 7.64489 33.3608 7.76341C33.2377 8.0049 33.0654 8.3146 32.8689 8.64565L31.3639 7.75271C31.5475 7.44327 31.7004 7.16733 31.8019 6.96827C31.8538 6.86651 31.8855 6.79813 31.9007 6.76121C31.9094 6.74028 31.9048 6.74851 31.8973 6.77533C31.8938 6.78773 31.8832 6.82672 31.8767 6.88171C31.8733 6.91005 31.8695 6.95561 31.8719 7.0123C31.8742 7.06545 31.8831 7.15844 31.9228 7.26735L33.567 6.66814ZM32.8689 8.64573C32.2951 9.61262 31.4828 10.7417 30.7751 11.5575L29.4532 10.4107C30.09 9.67657 30.8416 8.63289 31.3639 7.75264L32.8689 8.64573ZM30.7732 11.5596C30.5691 11.7933 30.4426 11.9378 30.3667 12.0189C30.3441 12.043 30.2685 12.1256 30.1747 12.1925C30.1417 12.2161 29.9704 12.3417 29.7135 12.3593C29.3402 12.385 29.088 12.1809 28.9718 12.0403L30.321 10.9257C30.2761 10.8714 30.1898 10.7803 30.0527 10.7091C29.9045 10.6321 29.7445 10.6031 29.5935 10.6134C29.3428 10.6307 29.1797 10.7526 29.1584 10.7679C29.088 10.8181 29.0497 10.865 29.0896 10.8224C29.1388 10.7699 29.2389 10.6561 29.455 10.4086L30.7732 11.5596ZM28.9513 12.0144C27.7902 10.4958 26.4794 9.14836 25.2272 8.18015L26.2976 6.79569C27.6907 7.87279 29.1057 9.33504 30.3415 10.9516L28.9513 12.0144ZM25.2284 8.18109C25.0613 8.05237 24.8993 7.92178 24.8637 7.89227L25.9814 6.54571C25.9812 6.54552 25.9837 6.54758 25.9901 6.55278C25.9959 6.55752 26.0037 6.5638 26.0132 6.57148C26.0322 6.58681 26.0574 6.60701 26.0868 6.63047C26.146 6.67755 26.2207 6.73645 26.2964 6.79475L25.2284 8.18109ZM24.8417 7.87333C24.7441 7.7867 24.6426 7.65921 24.5831 7.48568C24.525 7.31608 24.5268 7.16036 24.5447 7.04474C24.5751 6.8478 24.6636 6.70026 24.6944 6.64925C24.7696 6.52465 24.8884 6.37202 25.0129 6.21398L26.3876 7.29688C26.3211 7.38135 26.273 7.44337 26.2381 7.49023C26.2007 7.54039 26.1908 7.55664 26.1927 7.55341C26.1943 7.55079 26.2061 7.53125 26.2203 7.49916C26.2334 7.46942 26.26 7.40359 26.2742 7.31207C26.2892 7.21492 26.2921 7.07463 26.2386 6.91827C26.1836 6.75798 26.0901 6.64154 26.0035 6.56464L24.8417 7.87333ZM25.0093 6.2186C25.5485 5.5246 26.1266 4.6301 26.4476 3.99868L28.0076 4.79169C27.627 5.54032 26.9847 6.52835 26.3912 7.29226L25.0093 6.2186ZM26.4501 3.99377C26.5007 3.89572 26.5588 3.7956 26.6171 3.71009C26.6442 3.67037 26.6856 3.61267 26.7375 3.55561C26.7618 3.52892 26.8093 3.47893 26.8762 3.42868C26.9053 3.40685 27.1075 3.24771 27.4139 3.24771V4.99771C27.5823 4.99771 27.7096 4.94892 27.7759 4.91827C27.8467 4.88551 27.8981 4.84985 27.9272 4.82796C27.9843 4.78507 28.0205 4.74591 28.0321 4.73316C28.0586 4.70396 28.0694 4.68652 28.0627 4.69633C28.0535 4.70991 28.0312 4.74603 28.0051 4.79659L26.4501 3.99377ZM27.4139 3.24771C27.4971 3.24771 27.563 3.26006 27.5757 3.26233C27.6011 3.2669 27.6225 3.27179 27.6359 3.275C27.6634 3.28156 27.6897 3.28883 27.7098 3.2946C27.7517 3.30661 27.8006 3.32182 27.8505 3.33785C27.952 3.37043 28.0801 3.41373 28.2115 3.45984L27.6321 5.11113C27.5114 5.06877 27.3984 5.03069 27.3153 5.004C27.2729 4.99039 27.2438 4.9815 27.2274 4.97681C27.2184 4.97423 27.2205 4.975 27.2296 4.97716C27.2337 4.97816 27.2473 4.98137 27.2665 4.9848C27.2763 4.98656 27.2923 4.98925 27.3126 4.99168C27.3301 4.99379 27.3669 4.99771 27.4139 4.99771V3.24771ZM17.7826 4.5665C19.1501 4.86496 20.4792 5.33054 21.7692 5.95331L21.0083 7.52925C19.8355 6.96304 18.6362 6.54398 17.4095 6.27626L17.7826 4.5665ZM21.7715 5.95447C22.1615 6.14417 22.5035 6.32014 22.7537 6.45978C22.8762 6.52813 22.9918 6.59613 23.0838 6.65779C23.1266 6.68645 23.188 6.72943 23.2475 6.78189C23.2754 6.80651 23.3282 6.85519 23.381 6.92407C23.4071 6.9581 23.5681 7.16105 23.5681 7.47023H21.8181C21.8181 7.6377 21.8664 7.76516 21.8988 7.83445C21.9327 7.90717 21.9699 7.95971 21.9927 7.98952C22.0373 8.04759 22.0778 8.08364 22.0894 8.09389C22.1162 8.11761 22.1295 8.1249 22.1096 8.1116C22.0764 8.08932 22.0091 8.0483 21.9009 7.98793C21.6898 7.87013 21.3797 7.70993 21.0059 7.52809L21.7715 5.95447ZM23.5681 7.47023C23.5681 7.67091 23.4993 7.81754 23.4772 7.86294C23.4465 7.92633 23.4141 7.97469 23.3946 8.00226C23.3548 8.05851 23.3137 8.10489 23.287 8.13399C23.2299 8.19605 23.1618 8.26126 23.0965 8.32133C22.9617 8.44518 22.7833 8.59762 22.5901 8.75615C22.2041 9.07289 21.7197 9.44655 21.3331 9.71262L20.3409 8.27104C20.6741 8.04171 21.1178 7.70057 21.4799 7.40336C21.6608 7.25491 21.8114 7.12559 21.9122 7.03292C21.9646 6.98474 21.991 6.958 21.9988 6.94942C22.0046 6.9432 21.9886 6.9596 21.9658 6.99181C21.9548 7.00736 21.9289 7.0452 21.9025 7.09962C21.8848 7.13607 21.8181 7.2753 21.8181 7.47023H23.5681ZM21.3348 9.71143C21.027 9.92436 20.5559 10.2149 20.165 10.4437C19.9683 10.5588 19.7811 10.6646 19.6361 10.7413C19.5663 10.7781 19.4914 10.8162 19.4247 10.8456C19.3959 10.8583 19.3397 10.8825 19.2739 10.9019C19.2463 10.91 19.1715 10.9314 19.0751 10.9383C19.0272 10.9417 18.934 10.9448 18.8206 10.9198C18.7091 10.8953 18.5052 10.8267 18.338 10.6287L19.6748 9.49935C19.5086 9.30262 19.3063 9.23486 19.1971 9.21078C19.0859 9.18629 18.9954 9.18952 18.9509 9.19269C18.8611 9.19908 18.7952 9.21855 18.7785 9.22348C18.7347 9.23641 18.709 9.24865 18.7182 9.24456C18.7275 9.24047 18.7589 9.22546 18.8183 9.19406C18.9317 9.13415 19.0946 9.04247 19.2811 8.93331C19.6566 8.71356 20.0843 8.44855 20.3392 8.27223L21.3348 9.71143ZM18.3146 10.5998C18.2845 10.5609 18.2639 10.5271 18.2629 10.5253C18.2566 10.5152 18.2518 10.507 18.2494 10.5029C18.2443 10.4943 18.2403 10.487 18.2383 10.4833C18.2338 10.4752 18.2293 10.467 18.2258 10.4604C18.2183 10.4465 18.2087 10.4284 18.1977 10.4076C18.1754 10.3653 18.1439 10.3053 18.105 10.2307C18.0269 10.0812 17.9168 9.86981 17.7856 9.61746C17.5232 9.11259 17.1756 8.44213 16.8287 7.77205C16.4818 7.10201 16.1355 6.43186 15.8757 5.92768C15.7459 5.67573 15.6374 5.4645 15.5611 5.31525C15.5231 5.24089 15.4924 5.1805 15.4709 5.13772C15.4603 5.1168 15.4507 5.09741 15.443 5.08179C15.4396 5.07479 15.4342 5.06358 15.4287 5.05157C15.4264 5.04671 15.4203 5.03338 15.4134 5.01668C15.4104 5.00946 15.4026 4.99042 15.3941 4.96569C15.3897 4.95254 15.3795 4.91913 15.374 4.89869C15.3658 4.86356 15.3496 4.75478 15.3465 4.68085H17.0965C17.0934 4.607 17.0772 4.49834 17.069 4.46338C17.0636 4.44311 17.0535 4.4099 17.0491 4.39699C17.0408 4.37276 17.0332 4.35436 17.0306 4.34795C17.0244 4.33287 17.0192 4.3218 17.0183 4.31982C17.0155 4.31358 17.014 4.31066 17.0158 4.31437C17.0186 4.32019 17.0245 4.33195 17.0342 4.35127C17.0532 4.38896 17.0818 4.44537 17.1194 4.51893C17.1943 4.66555 17.3018 4.87471 17.4314 5.12622C17.6904 5.62895 18.0362 6.29796 18.3828 6.96752C18.7294 7.63704 19.0766 8.30663 19.3384 8.81044C19.4694 9.06243 19.5788 9.2725 19.656 9.42022C19.6946 9.49423 19.7248 9.55172 19.7454 9.59072C19.7558 9.6105 19.7629 9.62394 19.7672 9.6319C19.7696 9.63626 19.7697 9.6365 19.7686 9.63439C19.7682 9.63375 19.7655 9.6288 19.7614 9.62189C19.7596 9.61867 19.7551 9.61114 19.7492 9.60157C19.7485 9.6004 19.7281 9.56692 19.6982 9.52828L18.3146 10.5998ZM15.3465 4.68085C15.3465 4.57106 15.3677 4.40088 15.4736 4.2263C15.587 4.03954 15.7529 3.92112 15.916 3.86025C16.182 3.76095 16.4078 3.82389 16.4438 3.83324C16.5668 3.86522 16.656 3.91881 16.6623 3.92237C16.7089 3.94887 16.748 3.97678 16.7583 3.98404C16.7888 4.00556 16.8318 4.03766 16.8624 4.0602C16.9352 4.11394 17.0291 4.18229 17.1386 4.25401C17.3771 4.41012 17.6113 4.52913 17.7825 4.56649L17.4095 6.27627C16.9158 6.16854 16.4627 5.90314 16.1801 5.71818C16.0292 5.61936 15.9042 5.52801 15.8232 5.46823C15.7768 5.434 15.7592 5.42088 15.7483 5.41315C15.7378 5.40578 15.7611 5.42305 15.797 5.44344C15.7979 5.44396 15.8831 5.49564 16.0033 5.52691C16.0379 5.5359 16.2627 5.59879 16.528 5.49975C16.6907 5.439 16.8564 5.32079 16.9696 5.13432C17.0754 4.96002 17.0965 4.7902 17.0965 4.68085H15.3465ZM17.1083 8.04466C17.5332 8.94376 17.8105 9.53713 17.9767 9.90955C18.0583 10.0923 18.1213 10.2399 18.1621 10.35C18.1803 10.399 18.2076 10.4761 18.2257 10.559C18.2332 10.5935 18.2528 10.6877 18.2479 10.8055C18.2458 10.8544 18.2303 11.3137 17.7782 11.5525L16.9608 10.0051C16.5137 10.2413 16.501 10.6939 16.4994 10.7318C16.4949 10.8385 16.5127 10.9171 16.5158 10.9313C16.525 10.9738 16.5335 10.9913 16.5214 10.9587C16.5017 10.9057 16.4587 10.8023 16.3786 10.6228C16.2215 10.2707 15.9525 9.69454 15.5261 8.79249L17.1083 8.04466ZM17.8441 11.5139C17.7451 11.5778 17.636 11.6187 17.6116 11.6281C17.5585 11.6488 17.4978 11.6703 17.4362 11.6912C17.3117 11.7336 17.1565 11.7826 16.9937 11.8318C16.6708 11.9294 16.2868 12.0369 16.0131 12.1013L15.6128 10.3977C15.836 10.3452 16.181 10.2493 16.4875 10.1567C16.6394 10.1107 16.774 10.068 16.8729 10.0344C16.9231 10.0173 16.9575 10.0048 16.9777 9.99697C17.0268 9.97791 16.9692 9.99574 16.8949 10.0437L17.8441 11.5139ZM16.0171 12.1003C15.1842 12.3001 14.0657 12.4642 13.4416 12.4642V10.7142C13.8771 10.7142 14.8486 10.581 15.6088 10.3986L16.0171 12.1003ZM13.4416 12.4642C13.3978 12.4642 13.3414 12.4639 13.2871 12.4607C13.2496 12.4584 13.1285 12.4517 12.9948 12.4055C12.8355 12.3504 12.5307 12.1888 12.4186 11.804C12.336 11.5202 12.4211 11.2838 12.4299 11.2568L14.0953 11.7942C14.1013 11.7755 14.1171 11.7245 14.126 11.6548C14.1349 11.5845 14.1414 11.461 14.0988 11.3146C13.9917 10.9471 13.7006 10.7979 13.5669 10.7516C13.5041 10.7299 13.4543 10.7215 13.4323 10.7183C13.4081 10.7147 13.3922 10.7138 13.3901 10.7137C13.3883 10.7136 13.3996 10.7142 13.4416 10.7142V12.4642ZM12.4097 11.3298C12.4158 11.3033 12.4503 11.1497 12.4809 10.9948L14.1977 11.3343C14.1625 11.512 14.124 11.6839 14.1154 11.7211L12.4097 11.3298ZM12.4812 10.9934C12.6559 10.1173 13.0426 8.79377 13.3757 7.91142L15.0129 8.52941C14.7102 9.33143 14.3515 10.5627 14.1974 11.3357L12.4812 10.9934ZM13.3763 7.90987C13.5218 7.52641 13.6767 6.72222 13.809 5.92632C13.8757 5.52516 13.9225 5.2174 13.9691 4.93419C13.9899 4.80769 14.0102 4.68922 14.0285 4.60074C14.0363 4.56301 14.0503 4.4981 14.0708 4.43414C14.0757 4.41879 14.1058 4.31974 14.1727 4.2144C14.1943 4.18049 14.3057 4.00083 14.5388 3.89002C14.6793 3.82326 14.8698 3.77971 15.083 3.82122C15.2893 3.86139 15.4362 3.96548 15.5259 4.05231L14.3084 5.30939C14.3972 5.3954 14.5432 5.49899 14.7486 5.53897C14.9609 5.5803 15.1505 5.5369 15.29 5.4706C15.5212 5.36072 15.6305 5.18327 15.6499 5.1528C15.6874 5.09364 15.7087 5.04369 15.7171 5.02323C15.7274 4.99827 15.734 4.97863 15.7372 4.96842C15.7471 4.93763 15.7486 4.92472 15.7422 4.95571C15.732 5.00466 15.7169 5.09048 15.6959 5.21814C15.6589 5.44323 15.5969 5.8432 15.5354 6.21326C15.4113 6.95979 15.2322 7.95192 15.0123 8.53096L13.3763 7.90987ZM15.5259 4.0523C15.5926 4.11694 15.6334 4.17754 15.647 4.1982C15.6656 4.22628 15.6789 4.24987 15.6863 4.26348C15.7011 4.29075 15.7114 4.31313 15.7159 4.32301C15.7256 4.34455 15.7328 4.36262 15.7357 4.37014C15.7426 4.38773 15.7489 4.40499 15.7531 4.41674C15.7622 4.44233 15.7736 4.47523 15.7858 4.51106C15.8106 4.58355 15.8458 4.68809 15.8876 4.81168C15.9723 5.06165 16.0888 5.4041 16.2231 5.7849C16.4954 6.55682 16.8282 7.44949 17.1089 8.04597L15.5255 8.79119C15.2033 8.10669 14.8452 7.13934 14.5728 6.36707C14.4347 5.97577 14.3154 5.62508 14.23 5.37272C14.1868 5.24514 14.1535 5.14622 14.1298 5.07693C14.1179 5.04187 14.11 5.01931 14.1055 5.0066C14.1028 4.9992 14.1036 5.00161 14.1064 5.00885C14.1073 5.0112 14.1128 5.02522 14.1212 5.04387C14.1251 5.05231 14.1348 5.07353 14.1491 5.09993C14.1563 5.11311 14.1694 5.13635 14.1878 5.16413C14.2013 5.18452 14.2418 5.2449 14.3084 5.3094L15.5259 4.0523ZM13.8821 6.71746C13.8593 6.77506 13.7664 6.99597 13.6774 7.20614L12.0658 6.52412C12.1112 6.41678 12.1556 6.3115 12.1908 6.22765C12.2084 6.18567 12.2235 6.14955 12.2352 6.12145C12.241 6.10738 12.2458 6.09579 12.2495 6.08673C12.2514 6.08221 12.2528 6.07861 12.254 6.07583C12.2545 6.07446 12.2549 6.0734 12.2553 6.07263C12.2556 6.07183 12.2557 6.07149 12.2557 6.07152L13.8821 6.71746ZM13.6778 7.20524C13.1787 8.3882 12.7456 9.79156 12.464 11.1446L10.7507 10.7881C11.0538 9.33153 11.5195 7.81909 12.0654 6.52501L13.6778 7.20524ZM12.463 11.1495C12.4315 11.2965 12.401 11.4354 12.3763 11.541C12.3643 11.5926 12.3519 11.6435 12.3406 11.6857C12.3354 11.7052 12.3273 11.7346 12.3173 11.7653C12.3127 11.7793 12.3029 11.8085 12.2883 11.8431C12.2812 11.86 12.2675 11.8911 12.2471 11.9282C12.2347 11.9507 12.184 12.0436 12.0882 12.1363L10.8708 10.8792C10.8169 10.9314 10.7809 10.9798 10.7611 11.0083C10.7398 11.0391 10.7242 11.0658 10.7142 11.084C10.6946 11.1195 10.6819 11.1487 10.6758 11.1632C10.6632 11.193 10.6558 11.2156 10.6539 11.2214C10.6492 11.2358 10.6477 11.2424 10.6501 11.2333C10.6541 11.2184 10.6614 11.189 10.6722 11.1429C10.6932 11.0529 10.7211 10.9264 10.7518 10.7832L12.463 11.1495ZM12.0882 12.1363C11.8929 12.3255 11.6697 12.3631 11.6468 12.3677C11.579 12.3813 11.5234 12.3843 11.4971 12.3852C11.4406 12.3874 11.3917 12.3842 11.366 12.3823C11.3085 12.378 11.2467 12.3701 11.1932 12.3624C11.0812 12.3464 10.9396 12.3219 10.7925 12.2943C10.4998 12.2392 10.1418 12.1633 9.88441 12.096L10.3269 10.4029C10.5298 10.4559 10.8442 10.5233 11.116 10.5744C11.2512 10.5999 11.3649 10.6192 11.4413 10.6301C11.482 10.6359 11.4977 10.6373 11.4959 10.6372C11.4942 10.637 11.4884 10.6366 11.4795 10.6363C11.4716 10.636 11.4545 10.6356 11.4315 10.6365C11.4134 10.6372 11.3645 10.6394 11.3017 10.6521C11.2698 10.6585 11.216 10.6711 11.1522 10.6967C11.0944 10.7198 10.9817 10.7718 10.8708 10.8792L12.0882 12.1363ZM9.88046 12.095C9.63762 12.0303 9.31856 11.9314 9.04913 11.8414C8.91349 11.796 8.78344 11.7506 8.67647 11.7106C8.6065 11.6843 8.45041 11.6265 8.33642 11.5565L9.25141 10.0648C9.20365 10.0355 9.17348 10.025 9.20458 10.0381C9.22145 10.0453 9.24965 10.0565 9.29045 10.0718C9.37119 10.102 9.48002 10.1402 9.6038 10.1816C9.85322 10.265 10.1352 10.3518 10.3308 10.4039L9.88046 12.095ZM8.36352 11.5725C8.27019 11.5198 8.14952 11.43 8.05214 11.2833C7.9517 11.1321 7.90993 10.9715 7.90215 10.8307C7.88908 10.5941 7.97258 10.4123 7.99608 10.361C8.05507 10.2322 8.14999 10.0903 8.22547 9.97837L9.6766 10.9565C9.58034 11.0993 9.57478 11.1167 9.58719 11.0896C9.58739 11.0892 9.66107 10.9439 9.64949 10.7342C9.64245 10.6068 9.60425 10.4572 9.50993 10.3152C9.41867 10.1778 9.30669 10.0954 9.22431 10.0488L8.36352 11.5725ZM8.22914 9.97297C9.25767 8.47133 10.7115 6.97136 12.2134 5.86369L13.2521 7.27208C11.904 8.26634 10.5882 9.62556 9.67293 10.9619L8.22914 9.97297ZM12.212 5.86472C12.3093 5.79263 12.4013 5.72602 12.4718 5.67619C12.5063 5.65176 12.5395 5.62867 12.567 5.61017C12.5796 5.60172 12.5983 5.5893 12.6183 5.57695C12.6268 5.57172 12.6474 5.5591 12.6735 5.54523C12.6853 5.53895 12.713 5.52448 12.7495 5.50931C12.7676 5.50176 12.8001 5.48885 12.842 5.47665C12.8727 5.4677 12.9653 5.44164 13.0872 5.44164V7.19164C13.1543 7.19164 13.2087 7.18387 13.2436 7.17754C13.2801 7.1709 13.3101 7.16302 13.3315 7.1568C13.373 7.14471 13.4051 7.13197 13.4227 7.12464C13.458 7.1099 13.4844 7.09608 13.4946 7.09066C13.5174 7.07853 13.5337 7.06847 13.5367 7.06661C13.5458 7.06099 13.5493 7.0585 13.5429 7.06281C13.5324 7.06986 13.5123 7.08371 13.4825 7.10483C13.4241 7.14612 13.3425 7.20513 13.2535 7.27105L12.212 5.86472ZM13.0872 5.44164C13.5486 5.44164 13.8019 5.76611 13.8897 5.96479C13.9612 6.12675 13.9643 6.26829 13.9649 6.31028C13.9664 6.41787 13.9478 6.50312 13.9411 6.53243C13.9233 6.6116 13.8973 6.68316 13.8727 6.74029L12.2651 6.04869C12.2588 6.06337 12.2456 6.096 12.2341 6.14686C12.2307 6.16202 12.2136 6.23576 12.2151 6.33539C12.2156 6.37341 12.2182 6.51184 12.2888 6.67171C12.3276 6.75949 12.4037 6.89201 12.5482 7.00539C12.7056 7.1289 12.8964 7.19164 13.0872 7.19164V5.44164ZM8.60262 11.6206C9.25969 11.879 10.2219 12.1394 10.9947 12.2647L10.7147 13.9922C9.82866 13.8485 8.74468 13.5569 7.96213 13.2492L8.60262 11.6206ZM10.9916 12.2642C11.1025 12.2818 11.2069 12.3006 11.2879 12.3167C11.3274 12.3246 11.3675 12.333 11.4025 12.3413C11.4185 12.3451 11.4441 12.3514 11.472 12.3596C11.4845 12.3633 11.512 12.3716 11.545 12.3842C11.561 12.3904 11.5914 12.4025 11.628 12.421C11.6478 12.431 11.7452 12.4791 11.8434 12.5742L10.626 13.8314C10.6819 13.8855 10.7334 13.9207 10.7622 13.9392C10.7937 13.9594 10.8209 13.9739 10.839 13.9831C10.8745 14.001 10.9036 14.0125 10.9179 14.018C10.9475 14.0294 10.9703 14.0361 10.977 14.0381C10.9933 14.0429 11.0028 14.045 10.9984 14.044C10.9929 14.0427 10.9761 14.039 10.9467 14.0331C10.8898 14.0218 10.8079 14.007 10.7177 13.9927L10.9916 12.2642ZM11.8435 12.5743C12.0181 12.7434 12.069 12.9378 12.0736 12.9532C12.0906 13.0102 12.0982 13.0568 12.1013 13.0776C12.108 13.1226 12.1099 13.1594 12.1106 13.174C12.1122 13.2086 12.112 13.2403 12.1117 13.2596C12.111 13.3028 12.1089 13.3532 12.1061 13.4038C12.1003 13.5075 12.0902 13.6423 12.0764 13.7856L10.3345 13.6178C10.3463 13.4957 10.3544 13.3846 10.3587 13.307C10.361 13.2669 10.3618 13.2427 10.3619 13.2331C10.362 13.2261 10.3616 13.2369 10.3626 13.2567C10.3629 13.2639 10.3643 13.2949 10.3704 13.3356C10.3732 13.3544 10.3804 13.3992 10.3971 13.4549C10.4055 13.4832 10.4211 13.5301 10.4477 13.5851C10.4713 13.6336 10.5245 13.7331 10.6259 13.8313L11.8435 12.5743ZM12.0766 13.7835C11.9692 14.9284 11.9937 17.1754 12.1262 18.3566L10.3871 18.5515C10.2418 17.2557 10.2152 14.8884 10.3343 13.6199L12.0766 13.7835ZM12.1252 18.3485C12.1407 18.4756 12.1533 18.5935 12.1619 18.6823C12.1661 18.726 12.1697 18.767 12.172 18.8002C12.1731 18.8153 12.1746 18.8377 12.1754 18.861C12.1757 18.8702 12.1764 18.8958 12.1754 18.9272C12.1749 18.94 12.1735 18.9777 12.1666 19.025C12.1634 19.0472 12.1556 19.0961 12.1372 19.1561C12.1292 19.1822 12.0772 19.3657 11.9092 19.5285L10.6917 18.2714C10.5962 18.3639 10.5436 18.4572 10.5179 18.5086C10.4899 18.5645 10.4734 18.6127 10.464 18.6431C10.4458 18.7028 10.438 18.7513 10.4349 18.773C10.4281 18.8193 10.4268 18.8556 10.4264 18.8668C10.4254 18.8946 10.4262 18.9153 10.4263 18.9182C10.4266 18.9289 10.4271 18.9331 10.4265 18.925C10.4255 18.9119 10.4234 18.8867 10.4199 18.8494C10.4129 18.7764 10.4018 18.6732 10.388 18.5596L12.1252 18.3485ZM11.8363 19.5916C11.6739 19.7175 11.5083 19.7502 11.4976 19.7526C11.4493 19.7639 11.4101 19.7687 11.3922 19.7707C11.3536 19.7749 11.3218 19.7759 11.3084 19.7763C11.2771 19.7771 11.2473 19.7765 11.2275 19.776C11.1841 19.7749 11.1311 19.7724 11.0761 19.7693C10.9637 19.7631 10.815 19.753 10.6558 19.7411C10.3402 19.7174 9.95876 19.6845 9.71233 19.6558L9.91435 17.9175C10.1246 17.942 10.4777 17.9728 10.7868 17.996C10.94 18.0075 11.0764 18.0166 11.1731 18.022C11.2227 18.0248 11.2553 18.0261 11.2726 18.0266C11.2831 18.0269 11.2773 18.0265 11.2632 18.0269C11.2582 18.027 11.2332 18.0276 11.1996 18.0313C11.1841 18.033 11.1469 18.0375 11.1001 18.0484C11.0764 18.0539 11.0369 18.0641 10.9896 18.0821C10.9494 18.0973 10.8604 18.134 10.7646 18.2082L11.8363 19.5916ZM9.71868 19.6565C9.04164 19.5829 8.1671 19.4442 7.60306 19.3291L7.95323 17.6144C8.46343 17.7186 9.28427 17.8489 9.90799 17.9168L9.71868 19.6565ZM7.6 19.3284C7.28619 19.2632 6.88399 19.168 6.55565 19.0844C6.39156 19.0426 6.23917 19.002 6.12161 18.9681C6.06424 18.9516 6.00584 18.934 5.95532 18.9168C5.93139 18.9086 5.89662 18.8963 5.8597 18.8808C5.84173 18.8732 5.81138 18.8599 5.77623 18.8412C5.75774 18.8313 5.66559 18.7833 5.57269 18.6934L6.79015 17.4363C6.69976 17.3487 6.61191 17.3035 6.59946 17.2969C6.57034 17.2814 6.54774 17.2717 6.53916 17.2681C6.52102 17.2604 6.5116 17.2575 6.51895 17.26C6.531 17.2641 6.55892 17.2729 6.6066 17.2867C6.69915 17.3134 6.83175 17.3489 6.98737 17.3885C7.29845 17.4677 7.67453 17.5565 7.95629 17.6151L7.6 19.3284ZM5.5727 18.6934C5.44102 18.5658 5.38337 18.4303 5.3614 18.373C5.33516 18.3046 5.3224 18.2462 5.31599 18.212C5.30314 18.1435 5.30007 18.085 5.29895 18.0542C5.29653 17.9875 5.29956 17.9215 5.30277 17.8713C5.30957 17.7646 5.32373 17.6336 5.34135 17.4959C5.37713 17.2164 5.43382 16.8581 5.5004 16.5025L7.22051 16.8246C7.15921 17.1519 7.1081 17.4766 7.0772 17.7181C7.06148 17.8409 7.05258 17.93 7.04922 17.9827C7.04734 18.0121 7.04852 18.0106 7.0478 17.9907C7.04753 17.9833 7.0462 17.9438 7.03601 17.8895C7.03093 17.8624 7.01974 17.8099 6.99531 17.7462C6.97514 17.6937 6.91953 17.5616 6.79013 17.4362L5.5727 18.6934ZM5.50079 16.5004C5.77051 15.0787 6.26184 13.576 6.88764 12.2779L8.46404 13.0378C7.90599 14.1954 7.46194 15.5519 7.22012 16.8266L5.50079 16.5004ZM6.88683 12.2796C6.94362 12.1611 7.00476 12.0461 7.06073 11.9529C7.08705 11.909 7.12235 11.8529 7.16274 11.7992C7.18072 11.7753 7.21798 11.7272 7.27013 11.6766C7.29534 11.6521 7.34542 11.6059 7.41675 11.5605C7.46925 11.5271 7.64221 11.4219 7.89142 11.4219V13.1719C8.02359 13.1719 8.12942 13.1419 8.19796 13.1161C8.26768 13.0897 8.32115 13.0593 8.3561 13.037C8.42353 12.9941 8.46915 12.9516 8.48938 12.9319C8.53156 12.891 8.55678 12.8571 8.56095 12.8516C8.5737 12.8347 8.57429 12.8316 8.56134 12.8532C8.53874 12.8909 8.50306 12.9564 8.46485 13.0361L6.88683 12.2796ZM7.89142 11.4219C8.01486 11.4219 8.11675 11.4501 8.11821 11.4505C8.14894 11.4581 8.17652 11.4663 8.19566 11.4722C8.23549 11.4846 8.27872 11.4995 8.3188 11.5137C8.40102 11.543 8.50136 11.581 8.60109 11.62L7.96367 13.2498C7.87339 13.2145 7.79104 13.1835 7.73168 13.1623C7.70097 13.1514 7.68368 13.1457 7.67749 13.1438C7.67363 13.1426 7.68182 13.1452 7.69732 13.1491C7.70499 13.151 7.72218 13.1551 7.74531 13.1592C7.75721 13.1613 7.77468 13.1641 7.7961 13.1665C7.81614 13.1688 7.84962 13.1719 7.89142 13.1719V11.4219ZM7.64501 19.2731C8.86435 19.5148 10.4654 19.7022 11.2383 19.7022V21.4522C10.3085 21.4522 8.58464 21.2434 7.30474 20.9897L7.64501 19.2731ZM11.2383 19.7022C11.3452 19.7022 11.4626 19.706 11.5715 19.7203C11.6238 19.7272 11.7033 19.74 11.7901 19.7679C11.8366 19.7828 12.0705 19.8547 12.248 20.0839L10.8644 21.1554C10.9583 21.2766 11.0617 21.3428 11.1176 21.3739C11.1777 21.4074 11.2283 21.4255 11.2559 21.4343C11.2856 21.4439 11.3085 21.449 11.3205 21.4514C11.3332 21.454 11.3414 21.4551 11.3436 21.4554C11.3447 21.4555 11.3141 21.4522 11.2383 21.4522V19.7022ZM12.2604 20.1003C12.3331 20.1989 12.3703 20.2951 12.3741 20.3042C12.3877 20.3372 12.3984 20.3679 12.4059 20.3903C12.4214 20.4367 12.4361 20.4872 12.4493 20.5355C12.4761 20.6338 12.5051 20.7552 12.5306 20.8807L10.8157 21.2291C10.7973 21.1388 10.777 21.0549 10.7609 20.9958C10.7526 20.9653 10.7475 20.9491 10.7462 20.9452C10.7453 20.9426 10.7484 20.9523 10.7553 20.9691C10.7588 20.9775 10.766 20.9947 10.777 21.0168C10.7827 21.0281 10.7909 21.0439 10.8018 21.0626C10.8121 21.0803 10.8288 21.1075 10.852 21.139L12.2604 20.1003ZM12.5296 20.8756C12.8875 22.5851 13.5332 24.4824 14.3074 26.0979L12.7293 26.8542C11.8958 25.1151 11.2041 23.0846 10.8167 21.2343L12.5296 20.8756ZM14.3082 26.0996C14.3754 26.2406 14.4386 26.3759 14.486 26.4811C14.5093 26.5327 14.5315 26.5832 14.549 26.6257C14.5574 26.6458 14.5685 26.6735 14.5789 26.7029C14.5839 26.7167 14.5926 26.7419 14.6011 26.7725C14.6018 26.775 14.6345 26.8806 14.6345 27.0139H12.8845C12.8845 27.0583 12.8879 27.0946 12.8908 27.1182C12.8938 27.143 12.8974 27.1636 12.9003 27.1785C12.9059 27.2074 12.9119 27.23 12.9154 27.2423C12.9222 27.267 12.9284 27.2845 12.9301 27.2892C12.934 27.3003 12.9356 27.3035 12.9316 27.2938C12.9245 27.2766 12.9111 27.2457 12.8905 27.2C12.8502 27.1106 12.7928 26.9876 12.7285 26.8525L14.3082 26.0996ZM14.6345 27.0139C14.6345 26.9697 14.6301 26.9275 14.6317 26.946C14.6319 26.949 14.6337 26.9687 14.6346 26.9931C14.6356 27.0184 14.6361 27.0607 14.6312 27.1125C14.6205 27.2239 14.5836 27.3835 14.472 27.541C14.3637 27.6937 14.2306 27.7802 14.1332 27.8274C13.9731 27.9049 13.8243 27.9155 13.7971 27.918C13.7426 27.9229 13.6895 27.9237 13.6492 27.9239C13.4959 27.9244 13.1895 27.9126 12.6137 27.8919L12.6764 26.143C13.2844 26.1648 13.5353 26.1742 13.6433 26.1739C13.6683 26.1738 13.662 26.1731 13.641 26.175C13.6297 26.176 13.6014 26.1788 13.5636 26.1865C13.5295 26.1935 13.4566 26.2106 13.3705 26.2523C13.279 26.2966 13.1499 26.3799 13.0442 26.529C12.9352 26.6829 12.8994 26.8385 12.8892 26.9456C12.8844 26.9952 12.885 27.0352 12.8858 27.0582C12.8867 27.0803 12.8883 27.0975 12.8883 27.098C12.8895 27.1115 12.8845 27.0639 12.8845 27.0139H14.6345ZM12.6121 27.8918C10.8814 27.8265 9.48687 27.6695 7.85578 27.3448L8.19743 25.6285C9.73058 25.9337 11.0325 26.081 12.6781 26.1431L12.6121 27.8918ZM7.84809 27.3433C7.70587 27.3136 7.57065 27.2856 7.47341 27.2653C7.42461 27.2551 7.38231 27.2462 7.3511 27.2394C7.336 27.2362 7.32016 27.2327 7.30632 27.2295C7.30007 27.2281 7.28913 27.2255 7.27692 27.2224C7.27136 27.221 7.2593 27.2179 7.24449 27.2135C7.23721 27.2114 7.22395 27.2074 7.20762 27.2018C7.19806 27.1986 7.15734 27.1848 7.10811 27.161L7.87088 25.5859C7.82187 25.5622 7.7815 25.5486 7.77239 25.5455C7.75652 25.5401 7.74382 25.5362 7.73723 25.5343C7.72378 25.5304 7.71351 25.5277 7.71019 25.5269C7.70246 25.5249 7.69774 25.5238 7.69934 25.5242C7.70122 25.5246 7.70767 25.5261 7.72072 25.5289C7.7458 25.5343 7.7832 25.5422 7.83168 25.5524C7.92901 25.5727 8.05869 25.5996 8.20512 25.6301L7.84809 27.3433ZM6.85153 26.9723C6.78711 26.9037 6.74795 26.8389 6.73999 26.826C6.72457 26.8009 6.71273 26.7791 6.70556 26.7655C6.69086 26.7378 6.67801 26.7108 6.66862 26.6906C6.64902 26.6483 6.62727 26.5983 6.60565 26.5471C6.56158 26.4428 6.50684 26.3075 6.44968 26.1623C6.33604 25.8736 6.20362 25.5226 6.11705 25.2692L7.77309 24.7035C7.84729 24.9207 7.96881 25.2438 8.07805 25.5213C8.13234 25.6592 8.18128 25.7799 8.2176 25.8658C8.23616 25.9098 8.24879 25.9383 8.25578 25.9534C8.2597 25.9618 8.25821 25.9581 8.25269 25.9477C8.25011 25.9428 8.24231 25.9282 8.23036 25.9088C8.22586 25.9015 8.18959 25.8408 8.12745 25.7746L6.85153 26.9723ZM6.11728 25.2699C5.58924 23.7282 5.28094 22.0618 5.22296 20.4783L6.97179 20.4143C7.02343 21.8245 7.29975 23.3215 7.77286 24.7028L6.11728 25.2699ZM5.22289 20.4762L5.20097 19.8357L6.94994 19.7759L6.97187 20.4164L5.22289 20.4762ZM6.28587 18.9565L6.75722 19.0733L6.33638 20.7719L5.86504 20.6551L6.28587 18.9565ZM6.75544 19.0728C7.00815 19.1349 7.41012 19.2269 7.64359 19.2728L7.30617 20.9899C7.0354 20.9367 6.6043 20.8377 6.33817 20.7723L6.75544 19.0728ZM9.5499 27.5627C10.9621 27.7585 12.1788 27.841 13.712 27.841V29.591C12.1029 29.591 10.8057 29.5036 9.30947 29.2961L9.5499 27.5627ZM13.712 27.841H14.746V29.591H13.712V27.841ZM15.4806 28.2405L15.634 28.4776L14.1649 29.4285L14.0115 29.1915L15.4806 28.2405ZM15.6342 28.4778C16.5633 29.9142 17.7962 31.3684 18.9657 32.417L17.7975 33.72C16.5043 32.5605 15.1722 30.9856 14.1648 29.4283L15.6342 28.4778ZM18.9663 32.4175L19.3592 32.7704L18.1898 34.0724L17.7969 33.7195L18.9663 32.4175ZM19.3592 32.7704L19.4194 32.8244L18.25 34.1264L18.1898 34.0724L19.3592 32.7704ZM18.8555 34.3502L18.5423 34.3576L18.5006 32.6081L18.8139 32.6007L18.8555 34.3502ZM18.5423 34.3576L18.4097 34.3608L18.3681 32.6113L18.5006 32.6081L18.5423 34.3576ZM18.4124 34.3607C17.1379 34.395 15.1286 34.1565 13.6693 33.8142L14.0689 32.1104C15.4157 32.4263 17.2722 32.6408 18.3654 32.6114L18.4124 34.3607ZM13.669 33.8141C13.345 33.738 12.9693 33.639 12.6578 33.5508C12.502 33.5066 12.3575 33.4639 12.2405 33.4268C12.1527 33.3991 12.0058 33.3521 11.9005 33.2997L12.6807 31.7332C12.6394 31.7126 12.6446 31.7192 12.7683 31.7584C12.8628 31.7882 12.9891 31.8257 13.1347 31.867C13.4261 31.9495 13.7757 32.0416 14.0692 32.1105L13.669 33.8141ZM11.9093 33.304C11.7882 33.2453 11.6587 33.1475 11.5991 33.1023C11.5108 33.0354 11.4099 32.9541 11.3142 32.8717L12.4559 31.5455C12.5247 31.6046 12.5973 31.6631 12.6561 31.7077C12.6857 31.7301 12.7074 31.7456 12.7203 31.7545C12.7268 31.759 12.7277 31.7594 12.724 31.7571C12.7233 31.7567 12.7036 31.7442 12.672 31.7289L11.9093 33.304ZM11.3189 32.8758C10.5121 32.1911 9.78149 31.45 9.10919 30.6352L10.459 29.5215C11.0656 30.2566 11.7234 30.9239 12.4512 31.5414L11.3189 32.8758ZM9.10897 30.635C8.90007 30.3816 8.57284 29.9395 8.30527 29.5635C8.16972 29.373 8.04282 29.1902 7.9478 29.047C7.90119 28.9768 7.85665 28.9077 7.8214 28.8487C7.80469 28.8207 7.78236 28.7821 7.76157 28.7405C7.75162 28.7206 7.7347 28.6854 7.71827 28.6419C7.71297 28.6278 7.65949 28.4962 7.65949 28.3232H9.40949C9.40949 28.1547 9.35772 28.0297 9.35575 28.0245C9.34265 27.9897 9.33067 27.9656 9.32722 27.9587C9.3194 27.943 9.31619 27.9385 9.3241 27.9518C9.33808 27.9752 9.3647 28.0172 9.40584 28.0792C9.48632 28.2005 9.60126 28.3664 9.73107 28.5488C9.99422 28.9186 10.2918 29.3187 10.4592 29.5217L9.10897 30.635ZM7.65949 28.3232C7.65949 28.5058 7.71919 28.6408 7.72498 28.6549C7.74259 28.6976 7.75979 28.7294 7.76749 28.7433C7.78389 28.773 7.79795 28.7939 7.80114 28.7987C7.80976 28.8116 7.81453 28.8177 7.80973 28.8112C7.80226 28.8012 7.78716 28.7816 7.76276 28.7507C7.71476 28.6898 7.65153 28.6111 7.58333 28.5257C7.51834 28.4444 7.4479 28.3559 7.39534 28.2871C7.37136 28.2557 7.33953 28.2135 7.31259 28.1736C7.30626 28.1642 7.26808 28.1088 7.23469 28.0379C7.22467 28.0166 7.20718 27.9775 7.19108 27.9267C7.17956 27.8904 7.14387 27.7742 7.15073 27.6213C7.15808 27.4573 7.23331 27.0873 7.61824 26.885C7.9264 26.7231 8.20718 26.8009 8.27075 26.8193L7.78247 28.4998C7.84489 28.518 8.12481 28.5958 8.4324 28.4341C8.81674 28.2321 8.89166 27.8627 8.89897 27.6997C8.90579 27.5477 8.87033 27.4328 8.85928 27.3979C8.84367 27.3487 8.82692 27.3114 8.81789 27.2922C8.7996 27.2534 8.78279 27.2257 8.77766 27.2173C8.77051 27.2056 8.76515 27.1975 8.76329 27.1948C8.75913 27.1886 8.76384 27.1958 8.78576 27.2245C8.82501 27.2758 8.88382 27.3499 8.95037 27.4332C9.01371 27.5124 9.0843 27.6003 9.13724 27.6675C9.1633 27.7005 9.19045 27.7354 9.21262 27.7651C9.22263 27.7785 9.23906 27.8008 9.25563 27.8256C9.26281 27.8363 9.27992 27.8622 9.29838 27.8955C9.30711 27.9112 9.32508 27.9446 9.34322 27.9887C9.34953 28.004 9.40949 28.1399 9.40949 28.3232H7.65949ZM8.29541 26.8269C8.36933 26.8507 8.42389 26.8798 8.43343 26.8847C8.45351 26.8952 8.46943 26.9045 8.47803 26.9096C8.4957 26.92 8.51068 26.9297 8.51882 26.9349C8.53636 26.9463 8.55527 26.959 8.57071 26.9695C8.59546 26.9863 8.6539 27.0264 8.693 27.0531C8.78947 27.1187 8.91385 27.2021 9.04704 27.2855C9.18238 27.3702 9.31478 27.4472 9.42769 27.5034C9.56311 27.5708 9.59272 27.5684 9.54653 27.5622L9.31284 29.2965C9.05655 29.262 8.80984 29.1506 8.64793 29.07C8.46351 28.9782 8.27757 28.8683 8.11877 28.769C7.95783 28.6683 7.81228 28.5705 7.70825 28.4997C7.64709 28.4581 7.62264 28.4411 7.58749 28.4172C7.58094 28.4128 7.57593 28.4094 7.57214 28.4068C7.56813 28.4042 7.56688 28.4034 7.56752 28.4038C7.56793 28.404 7.56961 28.4051 7.57226 28.4068C7.57468 28.4083 7.57975 28.4115 7.58664 28.4155C7.59246 28.419 7.60603 28.4269 7.62421 28.4364C7.63183 28.4404 7.68491 28.4687 7.75781 28.4923L8.29541 26.8269ZM34.1905 31.6089C34.107 32.0448 33.9514 32.785 33.8824 33.0355L32.1952 32.5709C32.2432 32.3967 32.3872 31.7214 32.4718 31.2797L34.1905 31.6089ZM33.8804 33.0429C33.8401 33.1843 33.7591 33.3274 33.7278 33.383C33.6764 33.4743 33.6117 33.5798 33.5402 33.686C33.4232 33.8601 33.2009 34.1703 32.9345 34.3579L31.9268 32.9272C31.8955 32.9492 31.9048 32.9492 31.9532 32.8915C31.9939 32.8431 32.0409 32.7796 32.0882 32.7093C32.135 32.6397 32.1752 32.5736 32.2029 32.5244C32.2169 32.4995 32.2248 32.4842 32.2277 32.4783C32.2291 32.4754 32.2272 32.4791 32.2234 32.4881C32.2212 32.4933 32.2092 32.5215 32.1973 32.5635L33.8804 33.0429ZM32.9367 34.3564C32.5751 34.6127 31.8734 35.0971 31.2557 35.5119C30.9474 35.719 30.6539 35.9129 30.4318 36.0536C30.3226 36.1227 30.2199 36.1859 30.1375 36.2324C30.0998 36.2537 30.0455 36.2835 29.9882 36.3089C29.9646 36.3194 29.9038 36.3459 29.8259 36.3656C29.7898 36.3747 29.7061 36.3941 29.5983 36.3933C29.5156 36.3927 29.2348 36.3805 28.9924 36.1458L30.2099 34.8887C29.9689 34.6554 29.6906 34.6439 29.6114 34.6433C29.507 34.6426 29.4276 34.6613 29.3969 34.669C29.3297 34.686 29.2833 34.7071 29.2777 34.7097C29.2564 34.7191 29.2521 34.7226 29.2771 34.7086C29.3199 34.6844 29.3925 34.6404 29.4954 34.5752C29.6975 34.4472 29.9755 34.2637 30.28 34.0592C30.888 33.6509 31.5773 33.1749 31.9246 32.9287L32.9367 34.3564ZM28.9765 36.13C28.9114 36.0637 28.8707 36.0001 28.8638 35.9896C28.8484 35.9661 28.8362 35.9452 28.8284 35.9317C28.8126 35.9041 28.7978 35.876 28.7859 35.8528C28.7612 35.8048 28.732 35.7452 28.7012 35.6806C28.6387 35.5497 28.5579 35.3752 28.4696 35.1813L30.0622 34.456C30.1489 34.6462 30.2245 34.8096 30.2802 34.9262C30.3085 34.9854 30.329 35.0269 30.3419 35.052C30.3488 35.0654 30.3498 35.0668 30.3465 35.061C30.345 35.0585 30.3382 35.0466 30.3273 35.0301C30.3218 35.0216 30.3121 35.0073 30.299 34.9897C30.2879 34.9749 30.2628 34.9422 30.2258 34.9045L28.9765 36.13ZM28.4696 35.1813C28.2848 34.7754 28.0594 34.2685 27.8826 33.8611C27.7945 33.658 27.7166 33.4754 27.6613 33.3409C27.6344 33.2752 27.6093 33.2125 27.5906 33.1619C27.5825 33.1399 27.5688 33.1023 27.5571 33.0617C27.553 33.0476 27.5379 32.9958 27.5286 32.9301C27.5251 32.9057 27.5123 32.8157 27.5258 32.7016C27.5286 32.6783 27.5792 32.1472 28.1266 31.9705L28.6642 33.6358C28.9329 33.5491 29.0902 33.3602 29.168 33.2135C29.2382 33.0812 29.2571 32.963 29.2637 32.9071C29.277 32.7944 29.2644 32.7064 29.2612 32.6845C29.2526 32.6238 29.2393 32.5793 29.2379 32.5747C29.2316 32.5529 29.2274 32.5427 29.2323 32.5559C29.2396 32.5758 29.255 32.6148 29.28 32.6757C29.3288 32.7945 29.4014 32.9648 29.488 33.1645C29.6607 33.5624 29.8817 34.0597 30.0622 34.456L28.4696 35.1813ZM28.0794 31.9872C27.755 32.1129 27.6212 32.3742 27.5747 32.5007C27.5286 32.6264 27.5231 32.732 27.5218 32.7728C27.5189 32.8616 27.5311 32.9296 27.5331 32.9416C27.5372 32.9653 27.5412 32.9827 27.5426 32.9883C27.5435 32.9921 27.5442 32.995 27.5446 32.9966C27.5451 32.9983 27.5453 32.9993 27.5454 32.9995C27.5454 32.9997 27.5451 32.9983 27.544 32.9945C27.5429 32.9907 27.5417 32.9862 27.5398 32.9797C27.5364 32.9677 27.5315 32.9503 27.5262 32.9311C27.5053 32.8556 27.4716 32.7266 27.4517 32.5787C27.433 32.4407 27.4168 32.2222 27.4742 31.9874C27.5371 31.7305 27.7025 31.4131 28.0613 31.2254L28.8725 32.776C29.0724 32.6715 29.1516 32.4951 29.1741 32.4032C29.1912 32.3333 29.1804 32.3037 29.1859 32.3446C29.1901 32.3756 29.1993 32.4156 29.213 32.4653C29.2139 32.4685 29.2318 32.5319 29.236 32.5474C29.2386 32.5572 29.25 32.5991 29.2583 32.648C29.2612 32.6651 29.2738 32.7371 29.2709 32.8286C29.2695 32.8708 29.2639 32.9776 29.2174 33.104C29.1706 33.2314 29.0364 33.4932 28.7115 33.6191L28.0794 31.9872ZM28.0625 31.2248C28.4443 31.0258 29.3465 30.6106 30.1681 30.2259C30.5881 30.0292 30.9949 29.8369 31.325 29.6749C31.6771 29.502 31.8835 29.3914 31.9459 29.3499L32.9153 30.8068C32.7384 30.9246 32.4198 31.0869 32.0962 31.2458C31.7507 31.4154 31.3314 31.6135 30.9103 31.8107C30.0496 32.2138 29.2092 32.6006 28.8713 32.7767L28.0625 31.2248ZM31.9441 29.3511C32.1443 29.2172 32.3477 29.1848 32.4744 29.1771C32.6068 29.1691 32.7257 29.1839 32.8141 29.2C32.9901 29.232 33.1582 29.2909 33.2815 29.3395C33.525 29.4354 33.7725 29.5668 33.727 29.5448L32.9644 31.1199C32.9563 31.1159 32.95 31.1127 32.9481 31.1118C32.9453 31.1103 32.9431 31.1092 32.9418 31.1085C32.9393 31.1072 32.9373 31.1062 32.9365 31.1057C32.9347 31.1048 32.933 31.1039 32.9324 31.1035C32.9305 31.1025 32.929 31.1018 32.9269 31.1006C32.9229 31.0985 32.917 31.0954 32.9094 31.0915C32.894 31.0835 32.8712 31.0718 32.8432 31.0581C32.7856 31.0299 32.7127 30.9963 32.6401 30.9677C32.5607 30.9364 32.5139 30.9241 32.5007 30.9217C32.4944 30.9205 32.5251 30.9273 32.5803 30.9239C32.6299 30.9209 32.7672 30.9059 32.9172 30.8056L31.9441 29.3511ZM33.9545 29.7038C34.1081 29.8526 34.1629 30.0192 34.1674 30.0315C34.1853 30.0803 34.1949 30.1202 34.199 30.138C34.2077 30.1762 34.212 30.2068 34.2134 30.2175C34.2169 30.2433 34.2187 30.2648 34.2194 30.2732C34.2211 30.294 34.2222 30.3148 34.2229 30.3303C34.2246 30.3639 34.2261 30.4062 34.2273 30.4524C34.2299 30.5461 34.2321 30.6703 34.2326 30.8015C34.2334 31.0185 34.2319 31.3917 34.1907 31.6082L32.4716 31.2805C32.4681 31.2989 32.4696 31.2975 32.4723 31.2628C32.4746 31.2334 32.4767 31.1936 32.4785 31.1441C32.4819 31.045 32.483 30.926 32.4826 30.808C32.4822 30.6908 32.4802 30.5805 32.478 30.501C32.4769 30.4606 32.4758 30.4316 32.475 30.4151C32.4745 30.4055 32.4745 30.4066 32.475 30.4136C32.4752 30.4152 32.4764 30.4314 32.4794 30.4535C32.4806 30.4622 32.4846 30.4914 32.4931 30.5286C32.4971 30.5458 32.5065 30.5853 32.5243 30.6338C32.5333 30.6584 32.5493 30.6987 32.5747 30.746C32.5967 30.787 32.6467 30.8735 32.7369 30.9608L33.9545 29.7038ZM29.9096 33.746C30.0909 34.1347 30.1425 34.5169 30.1409 34.8232L28.3909 34.8141C28.3915 34.7059 28.3726 34.5908 28.3237 34.4858L29.9096 33.746ZM30.1409 34.8232C30.1398 35.0346 30.1134 35.2236 30.0778 35.3748C30.0603 35.4489 30.0375 35.5274 30.008 35.6023C29.9939 35.6379 29.9713 35.6906 29.9382 35.7482C29.9218 35.7767 29.8945 35.8211 29.8549 35.8703C29.824 35.9086 29.7402 36.008 29.5987 36.0879L28.7379 34.5643C28.6626 34.6068 28.608 34.6526 28.5734 34.6849C28.5376 34.7184 28.5107 34.7493 28.4923 34.7721C28.4565 34.8165 28.4333 34.8548 28.4213 34.8757C28.3969 34.918 28.384 34.95 28.3802 34.9597C28.3711 34.9828 28.3708 34.9889 28.3744 34.9737C28.3808 34.9463 28.3905 34.8887 28.3909 34.8141L30.1409 34.8232ZM29.6079 36.0827C29.5303 36.1278 29.4417 36.1636 29.4042 36.1788C29.3474 36.2018 29.2802 36.2275 29.2084 36.254C29.0639 36.3074 28.8826 36.3712 28.6915 36.4362C28.3136 36.5648 27.8692 36.7078 27.5733 36.7891L27.1095 35.1017C27.3544 35.0344 27.7595 34.9048 28.1279 34.7795C28.3099 34.7176 28.4759 34.6591 28.6015 34.6126C28.6647 34.5892 28.7132 34.5706 28.7464 34.5571C28.7988 34.5359 28.7744 34.543 28.7287 34.5696L29.6079 36.0827ZM28.1741 36.2143L28.0115 36.7176L26.3462 36.1798L26.5087 35.6765L28.1741 36.2143ZM28.0539 36.4487V36.6001H26.3039V36.4487H28.0539ZM26.9156 37.4346C26.6478 37.3501 26.4311 37.2012 26.2751 37.0762C26.1161 36.9488 25.9696 36.8044 25.8547 36.6896C25.7276 36.5625 25.6375 36.4704 25.5477 36.3906C25.4566 36.3096 25.4175 36.2893 25.4179 36.2894L26.1556 34.7025C26.3843 34.8088 26.5731 34.9606 26.7105 35.0828C26.8492 35.2061 26.9882 35.3482 27.0917 35.4517C27.2074 35.5673 27.2932 35.6496 27.3691 35.7103C27.4479 35.7735 27.4688 35.7741 27.4421 35.7657L26.9156 37.4346ZM25.1486 36.0947L23.4095 34.2413L24.6857 33.0438L26.4248 34.8972L25.1486 36.0947ZM24.2478 34.4943L24.1012 34.5288L23.7007 32.8252L23.8473 32.7908L24.2478 34.4943ZM24.1012 34.5288L24.003 34.5519L23.6025 32.8483L23.7007 32.8252L24.1012 34.5288ZM23.6085 32.8469C23.636 32.8407 23.6649 32.8339 23.6952 32.8266L24.1068 34.5275C24.0695 34.5365 24.0329 34.5451 23.997 34.5533L23.6085 32.8469ZM23.6952 32.8266C24.7131 32.5803 26.7579 31.8673 27.6451 31.5243L28.2762 33.1566C27.3708 33.5066 25.2396 34.2534 24.1068 34.5275L23.6952 32.8266ZM27.6446 31.5245C28.0736 31.3583 28.4224 31.5609 28.5244 31.6274C28.6567 31.7136 28.755 31.8183 28.8136 31.8856C28.9384 32.0288 29.0531 32.2032 29.1394 32.3426L27.6515 33.2638C27.5768 33.1432 27.5223 33.0675 27.494 33.035C27.4761 33.0144 27.5019 33.0499 27.5687 33.0934C27.6043 33.1166 27.6811 33.1618 27.7937 33.1892C27.9143 33.2185 28.0885 33.2293 28.2767 33.1563L27.6446 31.5245ZM29.1394 32.3426C29.2383 32.5023 29.3292 32.6646 29.3919 32.7773C29.4258 32.8382 29.4472 32.8771 29.4627 32.9041C29.4712 32.9191 29.47 32.9165 29.4636 32.9063C29.4622 32.9041 29.4464 32.879 29.4216 32.8474C29.4114 32.8343 29.3789 32.7932 29.3295 32.7474C29.3052 32.725 29.2555 32.6813 29.184 32.6387C29.1469 32.6166 29.0929 32.5881 29.024 32.5641C28.9556 32.5403 28.857 32.5155 28.7366 32.5155V34.2655C28.5082 34.2655 28.3466 34.1768 28.2879 34.1418C28.2159 34.0989 28.1657 34.0549 28.1408 34.0318C28.09 33.9848 28.0561 33.942 28.044 33.9266C28.0156 33.8904 27.9952 33.8584 27.9881 33.8474C27.9703 33.8194 27.9537 33.7907 27.9434 33.7726C27.9211 33.7336 27.8907 33.6786 27.8625 33.6278C27.8011 33.5174 27.7271 33.386 27.6515 33.2638L29.1394 32.3426ZM28.5702 32.5315C28.8991 32.4678 29.1391 32.6102 29.196 32.6451C29.2809 32.6971 29.3377 32.752 29.3613 32.7757C29.4127 32.8273 29.4475 32.875 29.4599 32.8921C29.4904 32.9345 29.5155 32.976 29.5302 33.0008C29.5634 33.0569 29.6007 33.1259 29.6375 33.1963C29.7131 33.3408 29.8087 33.5336 29.9069 33.7404L28.3263 34.4914C28.2345 34.2983 28.1492 34.1266 28.0869 34.0076C28.0548 33.9461 28.0339 33.9085 28.0237 33.8914C28.0168 33.8796 28.024 33.8929 28.0409 33.9164C28.0465 33.9241 28.0755 33.9647 28.1223 34.0116C28.1436 34.033 28.1984 34.0862 28.2815 34.1371C28.3247 34.1636 28.3956 34.202 28.4901 34.2298C28.5853 34.2579 28.7308 34.2829 28.903 34.2495L28.5702 32.5315ZM21.8947 33.6264C22.107 33.7554 22.2424 33.9356 22.3176 34.0483C22.4023 34.1752 22.4728 34.3129 22.5307 34.4385C22.6459 34.6887 22.7517 34.9817 22.8405 35.2323C22.936 35.5022 23.0115 35.7213 23.0814 35.8898C23.1163 35.9738 23.1374 36.0142 23.1446 36.0262C23.1765 36.0801 23.1061 35.9253 22.9001 35.8204L22.1062 37.3799C21.8289 37.2388 21.6844 36.9948 21.6397 36.9195C21.5702 36.8023 21.512 36.6736 21.4653 36.5611C21.3721 36.3368 21.275 36.0543 21.1908 35.8164C21.0997 35.5592 21.0184 35.3382 20.9413 35.1708C20.9029 35.0876 20.8759 35.0406 20.862 35.0197C20.8386 34.9847 20.8743 35.0541 20.9861 35.1221L21.8947 33.6264ZM22.517 38.0579C21.5443 38.0733 20.1888 37.9181 19.0687 37.6692L19.4483 35.9608C20.4621 36.1861 21.6789 36.321 22.4893 36.3081L22.517 38.0579ZM19.0681 37.669C18.6094 37.5667 17.8578 37.4093 17.4805 37.2684L18.0927 35.629C18.3219 35.7146 18.8919 35.8368 19.4489 35.961L19.0681 37.669ZM17.6535 35.5839L21.7412 34.9549L22.0073 36.6846L17.9196 37.3135L17.6535 35.5839ZM21.374 36.5376L18.0211 34.2007L19.0218 32.765L22.3746 35.1019L21.374 36.5376ZM18.0211 34.2007L17.8886 34.1083L18.8892 32.6727L19.0218 32.765L18.0211 34.2007ZM18.4954 32.522C18.5286 32.5261 18.6428 32.5357 18.8327 32.5483L18.7164 34.2945C18.5369 34.2825 18.3726 34.27 18.2824 34.259L18.4954 32.522ZM18.8327 32.5483C19.1647 32.5704 19.6503 32.5969 20.0893 32.614C20.309 32.6226 20.5126 32.6286 20.6773 32.6307C20.7597 32.6318 20.8288 32.6318 20.8833 32.6309C20.9104 32.6304 20.9318 32.6297 20.948 32.629C20.965 32.6282 20.9715 32.6276 20.9701 32.6277L21.1435 34.3691C20.9152 34.3918 20.4428 34.3791 20.0212 34.3627C19.5658 34.3449 19.0641 34.3176 18.7164 34.2945L18.8327 32.5483ZM20.9649 32.6282C21.1098 32.613 21.3082 32.6116 21.5169 32.6861C21.7513 32.7697 21.9459 32.9308 22.0693 33.1476C22.1786 33.3397 22.204 33.526 22.2112 33.6371C22.2187 33.751 22.2104 33.8545 22.2049 33.9149C22.1887 34.0932 22.1882 34.074 22.1881 34.0728C22.1843 34.0246 22.1461 33.7792 21.8949 33.6265L20.9859 35.1219C20.7934 35.0049 20.6525 34.8417 20.5631 34.6595C20.4794 34.4888 20.4525 34.3258 20.4434 34.2089C20.4343 34.0922 20.4406 33.9873 20.4463 33.9178C20.4493 33.8816 20.4529 33.8473 20.4556 33.8212C20.4586 33.7921 20.4605 33.7739 20.4622 33.756C20.4658 33.7162 20.4632 33.7237 20.4649 33.751C20.4665 33.7754 20.475 33.8843 20.5485 34.0134C20.636 34.1672 20.7758 34.2797 20.9288 34.3343C21.056 34.3797 21.1462 34.3688 21.1486 34.3686L20.9649 32.6282ZM13.9461 19.8616C13.9878 19.8588 14.0384 19.8556 14.0799 19.8553C14.0885 19.8552 14.1221 19.8548 14.1635 19.8581C14.1768 19.8592 14.238 19.8638 14.3132 19.8831C14.344 19.8911 14.4419 19.9169 14.5514 19.9838C14.636 20.0354 14.9663 20.2618 14.9707 20.7226C14.9746 21.139 14.6994 21.3676 14.6492 21.4086C14.5644 21.4779 14.4863 21.5145 14.4588 21.5271C14.3948 21.5563 14.3413 21.571 14.3282 21.5747C14.2905 21.5852 14.2596 21.5909 14.252 21.5924L13.927 19.8728C13.9232 19.8735 13.8954 19.8786 13.8599 19.8885C13.8478 19.8919 13.7952 19.9063 13.7317 19.9353C13.7045 19.9477 13.6266 19.9842 13.542 20.0534C13.4919 20.0943 13.2168 20.3228 13.2207 20.739C13.2251 21.1998 13.5554 21.4261 13.6398 21.4776C13.7491 21.5443 13.8468 21.5701 13.8773 21.578C13.9519 21.5972 14.0121 21.6016 14.0241 21.6026C14.0628 21.6057 14.0923 21.6052 14.0952 21.6052C14.1136 21.605 14.1143 21.6043 14.0636 21.6077L13.9461 19.8616ZM14.0681 19.8579L14.1078 19.8569L14.1506 21.6064L14.1109 21.6073L14.0681 19.8579ZM26.7207 28.5603C26.7959 28.7182 26.8732 28.8811 26.952 29.0474L25.3704 29.7964C25.2921 29.6311 25.2153 29.4693 25.1406 29.3125L26.7207 28.5603ZM33.6944 29.3527L33.6714 29.3787L32.3603 28.2196L32.3833 28.1936L33.6944 29.3527ZM21.5056 1.7023L21.3866 -0.0436516L21.3929 -0.0440598L21.5056 1.7023ZM9.81334 6.81205L11.0322 8.06774L11.0319 8.06807L9.81334 6.81205ZM4.48238 21.9997L6.21828 21.7781L6.21844 21.7793L4.48238 21.9997ZM9.05334 31.8512L10.3484 30.6743L10.3518 30.678L9.05334 31.8512ZM11.896 34.3742L10.8773 35.7971L10.8771 35.797L11.896 34.3742ZM19.697 37.559L19.9612 35.829L19.9612 35.829L19.697 37.559ZM22.4739 37.7536V36.0036L22.4791 36.0036L22.4739 37.7536ZM25.0645 37.5944L24.8203 35.8615L24.8235 35.861L25.0645 37.5944ZM36.7312 30.9559L35.3692 29.8571L35.3715 29.8543L36.7312 30.9559ZM35.1528 6.79436L33.9353 8.05146L33.9345 8.0507L35.1528 6.79436ZM24.2826 1.76954L24.101 3.5101L24.0994 3.50993L24.2826 1.76954ZM34.3531 8.5831L35.591 7.34612L35.5926 7.34766L34.3531 8.5831ZM36.5235 11.3715L38.0073 10.4437L38.0102 10.4483L36.5235 11.3715ZM37.0911 12.3406V14.0906H35.3411V12.3406H37.0911ZM30.8454 12.5342L32.1298 13.7229L31.5999 14.2955L30.8198 14.2841L30.8454 12.5342ZM32.9354 10.3418L34.387 11.3193L34.3826 11.3258L32.9354 10.3418ZM34.006 8.5831L32.4449 7.79232L32.4531 7.7761L32.4616 7.76006L34.006 8.5831ZM24.8495 9.1139L25.9412 7.74612L25.9518 7.75472L24.8495 9.1139ZM27.2062 11.3715L28.5215 10.2171L28.523 10.2189L27.2062 11.3715ZM28.4302 12.4989L28.4046 14.2487L26.6802 14.2234V12.4989H28.4302ZM19.7816 11.8492L21.4661 11.3749L21.8871 12.8701L20.4524 13.4655L19.7816 11.8492ZM20.2274 11.552L21.0526 13.0952L21.0507 13.0962L20.2274 11.552ZM22.8399 9.83577L23.9404 11.1964L23.9375 11.1987L22.8399 9.83577ZM24.0639 8.77419L25.3372 9.97467L25.3168 9.99629L25.2957 10.0172L24.0639 8.77419ZM13.4239 19.0857L13.5378 20.832L13.5354 20.8321L13.4239 19.0857ZM13.0914 19.1069L13.2029 20.8534L11.7066 20.9489L11.3827 19.485L13.0914 19.1069ZM13.0695 19.0078L11.3608 19.3859L11.3604 19.3839L13.0695 19.0078ZM12.8977 17.0085L11.15 17.0983L11.1499 17.095L12.8977 17.0085ZM12.9964 13.661L14.7341 13.868L14.7335 13.8733L12.9964 13.661ZM13.0183 13.477L11.2806 13.27L11.4644 11.727H13.0183V13.477ZM17.761 12.6348L17.1666 10.9889L17.1742 10.9861L17.1819 10.9834L17.761 12.6348ZM18.1702 12.518L18.8411 14.1343L17.9353 14.5103L17.1418 13.9339L18.1702 12.518ZM15.8793 27.136V25.386H17.2481L17.5778 26.7146L15.8793 27.136ZM15.7149 27.136V28.886H14.646L14.158 27.9351L15.7149 27.136ZM15.4043 26.5309L16.9572 25.7241L16.9612 25.7318L15.4043 26.5309ZM13.9099 22.8897L12.2365 23.4018L12.2352 23.3976L13.9099 22.8897ZM13.3947 20.9045L15.1104 20.56L15.1131 20.5736L15.1157 20.5872L13.3947 20.9045ZM13.3691 20.7771L11.6533 21.1216L11.2603 19.1641L13.2525 19.031L13.3691 20.7771ZM14.0049 20.7347L13.8882 18.9886L13.9251 18.9861L13.9621 18.9852L14.0049 20.7347ZM31.262 30.0483L30.3221 28.5721L30.3248 28.5704L31.262 30.0483ZM28.9674 31.3116L27.6964 32.5145L27.6624 32.4786L27.6305 32.4409L28.9674 31.3116ZM26.1612 29.4219L27.7421 28.6713L27.7438 28.6751L26.1612 29.4219ZM27.3414 32.0264L28.5589 33.2834L28.5588 33.2835L27.3414 32.0264ZM25.5181 32.6739L25.0127 30.9985L25.0176 30.997L25.5181 32.6739ZM23.0956 33.2719L22.767 31.5531L22.77 31.5525L23.0956 33.2719ZM21.4404 33.4984L22.2031 31.9233L22.2031 31.9234L21.4404 33.4984ZM21.0568 33.233L20.0283 34.6489L20.0223 34.6445L21.0568 33.233ZM17.0522 29.2061L18.4581 28.1641L18.4596 28.1661L17.0522 29.2061ZM34.6851 30.7118L36.0084 31.8569L36.0029 31.8632L34.6851 30.7118ZM34.5645 30.8498L35.8824 32.0012L32.1469 36.2768L32.8271 30.6401L34.5645 30.8498ZM34.6303 30.3048L32.8929 30.0952L32.893 30.0938L34.6303 30.3048ZM34.7143 29.583L32.9757 29.3835L32.9911 29.2489L33.0271 29.1183L34.7143 29.583ZM38.8302 12.3406L40.4496 11.6773L41.4381 14.0906H38.8302V12.3406ZM14.1292 19.0332L13.9467 17.2927L15.8792 17.0901V19.0332H14.1292ZM14.0895 20.7326L14.0467 18.9831L14.4145 22.4522L14.0895 20.7326ZM14.1292 20.7316H15.8792V22.318L14.3005 22.4732L14.1292 20.7316ZM16.2215 28.0853L14.8156 29.1273L14.7222 29.0013L14.6527 28.8607L16.2215 28.0853ZM25.9307 28.9364L24.3498 29.687L23.1625 27.1864H25.9307V28.9364ZM27.8412 28.9364V27.1864H28.9526L29.4251 28.1923L27.8412 28.9364ZM33.0158 28.7991L31.9117 27.4414L34.3012 29.9867L33.0158 28.7991ZM34.7587 29.4219L35.0991 27.7054L36.9458 28.0716L36.4458 29.8866L34.7587 29.4219ZM36.2215 28.9362L34.8981 27.7911L35.4538 27.1489L36.3021 27.188L36.2215 28.9362ZM38.082 29.022L38.1626 27.2738L41.1447 27.4114L39.568 29.9463L38.082 29.022ZM21.6247 3.44825C17.4521 3.73273 13.8792 5.30422 11.0322 8.06774L8.59443 5.55635C12.0613 2.19102 16.4245 0.29467 21.3866 -0.0436401L21.6247 3.44825ZM11.0319 8.06807C7.33356 11.6562 5.56853 16.6897 6.21828 21.7781L2.74647 22.2214C1.95661 16.0358 4.10851 9.90855 8.59477 5.55603L11.0319 8.06807ZM6.21844 21.7793C6.6365 25.0725 8.06514 28.1617 10.3484 30.6743L7.75823 33.0281C4.99923 29.9922 3.25634 26.2378 2.74631 22.2201L6.21844 21.7793ZM10.3518 30.678C11.0053 31.4013 12.0578 32.3376 12.9149 32.9514L10.8771 35.797C9.82693 35.0449 8.58484 33.9431 7.75483 33.0244L10.3518 30.678ZM12.9148 32.9513C14.992 34.4385 17.4561 35.4465 19.9612 35.829L19.4328 39.2889C16.3767 38.8222 13.3966 37.6009 10.8773 35.7971L12.9148 32.9513ZM19.9612 35.829C20.8809 35.9695 21.3323 36.0036 22.4739 36.0036V39.5036C21.1821 39.5036 20.5519 39.4598 19.4328 39.2889L19.9612 35.829ZM22.4791 36.0036C23.6052 36.0069 23.9401 35.9855 24.8203 35.8615L25.3087 39.3272C24.2304 39.4792 23.7249 39.5073 22.4687 39.5036L22.4791 36.0036ZM24.8235 35.861C28.959 35.2861 32.7073 33.1565 35.3692 29.8571L38.0932 32.0548C34.8798 36.0378 30.3339 38.6287 25.3055 39.3277L24.8235 35.861ZM33.9345 8.0507C31.2781 5.4749 27.8935 3.90569 24.101 3.5101L24.4641 0.0289841C29.017 0.503883 33.1374 2.40251 36.371 5.53801L33.9345 8.0507ZM24.0994 3.50993C23.9296 3.49206 23.4162 3.4689 22.8278 3.45491C22.2324 3.44074 21.7457 3.44044 21.6184 3.44867L21.3929 -0.0440598C21.9382 -0.0792656 23.8718 -0.0333748 24.4658 0.0291595L24.0994 3.50993ZM35.5926 7.34766C36.4134 8.17113 37.311 9.33008 38.0073 10.4438L35.0397 12.2993C34.4572 11.3677 33.7179 10.4247 33.1137 9.81855L35.5926 7.34766ZM38.0102 10.4483C38.1121 10.6124 38.3281 10.9505 38.4122 11.0874C38.4686 11.1792 38.5394 11.2972 38.6001 11.4148C38.63 11.4728 38.6746 11.5633 38.7155 11.6714C38.7403 11.7367 38.8411 11.9986 38.8411 12.3406H35.3411C35.3411 12.4364 35.3492 12.5177 35.3581 12.5796C35.3671 12.6423 35.3784 12.6953 35.3885 12.7365C35.4081 12.8163 35.4296 12.8772 35.4427 12.9118C35.468 12.9785 35.4896 13.0195 35.49 13.0203C35.493 13.0261 35.4904 13.0207 35.4784 13.0001C35.467 12.9805 35.4513 12.9541 35.4298 12.9193C35.3858 12.8476 35.3317 12.7622 35.2624 12.653C35.1956 12.5477 35.1178 12.4251 35.0369 12.2948L38.0102 10.4483ZM29.561 11.3456C30.0063 10.8645 30.4628 10.4577 30.7585 10.1765C31.0758 9.87474 31.2963 9.6402 31.4883 9.35777L34.3826 11.3258C33.9827 11.9139 33.5528 12.3492 33.1704 12.7128C32.7663 13.097 32.4738 13.3512 32.1298 13.7229L29.561 11.3456ZM31.4839 9.3643C31.8516 8.8183 32.3026 8.07318 32.4449 7.79232L35.5672 9.37389C35.3294 9.84321 34.7866 10.7259 34.387 11.3193L31.4839 9.3643ZM32.4616 7.76006C32.4993 7.68935 32.5451 7.60662 32.5917 7.53024C32.6117 7.49745 32.6519 7.43245 32.7039 7.36163C32.7255 7.33224 32.7847 7.2526 32.8712 7.16386C32.9119 7.12206 33.0028 7.03226 33.1354 6.94097C33.215 6.88621 33.5832 6.6314 34.1302 6.6314V10.1314C34.4282 10.1314 34.6614 10.0556 34.8006 9.99769C34.9444 9.93793 35.0526 9.87031 35.1199 9.82396C35.2505 9.73407 35.339 9.64635 35.3771 9.60729C35.4583 9.52401 35.5109 9.45241 35.5249 9.43336C35.5464 9.40417 35.5611 9.38192 35.5673 9.3724C35.5744 9.36139 35.5789 9.35413 35.5802 9.352C35.582 9.34905 35.5712 9.36716 35.5504 9.40615L32.4616 7.76006ZM34.1302 6.6314C34.5884 6.6314 34.9213 6.81987 34.9264 6.82246C35.0174 6.86871 35.085 6.91322 35.1148 6.93326C35.1799 6.977 35.2301 7.01694 35.2515 7.03422C35.3018 7.07464 35.3469 7.11464 35.3776 7.14239C35.4444 7.20265 35.5192 7.27422 35.591 7.34612L33.1152 9.82009C33.0775 9.78229 33.0463 9.75301 33.0317 9.73985C33.0218 9.73088 33.0325 9.74103 33.057 9.76077C33.0656 9.76771 33.1052 9.7996 33.1621 9.83788C33.1879 9.8552 33.2521 9.89762 33.3403 9.94247C33.3846 9.96499 33.4628 10.0024 33.5649 10.0374C33.6484 10.066 33.8558 10.1314 34.1302 10.1314V6.6314ZM25.9518 7.75472C26.7654 8.41454 27.8313 9.43079 28.5215 10.2171L25.8909 12.5259C25.3388 11.8968 24.417 11.0164 23.7471 10.4731L25.9518 7.75472ZM28.523 10.2189C28.6615 10.3772 28.8777 10.5715 29.1193 10.7744C29.2047 10.8462 29.3654 10.9787 29.4393 11.0415C29.4817 11.0777 29.5527 11.1387 29.6207 11.2052C29.6507 11.2346 29.7212 11.3045 29.7957 11.3991C29.832 11.4451 29.9017 11.5373 29.9698 11.6643C30.0177 11.7535 30.1802 12.0639 30.1802 12.4989H26.6802C26.6802 12.7339 26.7277 12.9216 26.7664 13.0398C26.8063 13.1618 26.8525 13.2572 26.8863 13.3201C26.9515 13.4416 27.0169 13.5276 27.0475 13.5664C27.1108 13.6466 27.1646 13.6987 27.173 13.7069C27.1978 13.7312 27.206 13.7369 27.1702 13.7064C27.1412 13.6817 27.1033 13.6501 27.0489 13.605C26.9975 13.5623 26.9348 13.5104 26.8679 13.4543C26.6144 13.2413 26.2186 12.9002 25.8894 12.5241L28.523 10.2189ZM18.0971 12.3236C17.9392 11.763 18.0956 11.2973 18.218 11.0518C18.3361 10.8148 18.4808 10.6573 18.5529 10.5839C18.7003 10.434 18.8495 10.3334 18.9124 10.2918C19.0613 10.1933 19.2419 10.0942 19.404 10.0078L21.0507 13.0962C20.8876 13.1832 20.8399 13.2133 20.8444 13.2103C20.8503 13.2064 20.8707 13.1927 20.8998 13.1703C20.9257 13.1504 20.982 13.1055 21.0488 13.0376C21.1051 12.9803 21.2387 12.8372 21.3505 12.613C21.4665 12.3802 21.6212 11.9258 21.4661 11.3749L18.0971 12.3236ZM19.4021 10.0088C20.1534 9.60705 21.139 8.9586 21.7422 8.47282L23.9375 11.1987C23.1523 11.8311 21.9821 12.5981 21.0526 13.0952L19.4021 10.0088ZM21.7393 8.47513C21.8819 8.35985 22.1306 8.14902 22.371 7.94046C22.4891 7.83807 22.5995 7.74114 22.6878 7.66234C22.732 7.62286 22.7684 7.58998 22.7962 7.56446C22.8274 7.53586 22.8365 7.52679 22.8321 7.53117L25.2957 10.0172C25.0744 10.2365 24.2848 10.9178 23.9404 11.1964L21.7393 8.47513ZM22.7906 7.57371C22.8688 7.49077 22.9498 7.4135 23.0253 7.34806C23.0606 7.31751 23.114 7.27281 23.1778 7.22629C23.2062 7.20554 23.2671 7.1621 23.3473 7.11587C23.386 7.09354 23.4609 7.05206 23.56 7.01133C23.6163 6.98818 23.876 6.87911 24.2283 6.87911V10.3791C24.4268 10.3791 24.5832 10.3451 24.671 10.322C24.766 10.2972 24.8415 10.2687 24.891 10.2484C24.9877 10.2086 25.0598 10.1686 25.0952 10.1481C25.1688 10.1057 25.2213 10.0679 25.2398 10.0544C25.2837 10.0223 25.311 9.99865 25.3162 9.9942C25.3315 9.98095 25.3357 9.97622 25.3372 9.97467L22.7906 7.57371ZM24.2283 6.87911C24.5322 6.87911 24.7594 6.96059 24.8131 6.97961C24.9023 7.01118 24.9703 7.0435 25.0049 7.06063C25.0761 7.09578 25.1297 7.12836 25.1504 7.14112C25.198 7.17036 25.2353 7.19645 25.2494 7.20635C25.2839 7.23052 25.3161 7.25463 25.337 7.27034C25.383 7.30504 25.4393 7.34879 25.4975 7.39439C25.6165 7.48759 25.7743 7.61293 25.9412 7.74616L23.7578 10.4816C23.5922 10.3495 23.4448 10.2324 23.3391 10.1496C23.2849 10.1071 23.249 10.0795 23.2295 10.0647C23.2176 10.0557 23.2237 10.0606 23.2396 10.0718C23.2444 10.0751 23.2744 10.0963 23.3165 10.1222C23.3345 10.1332 23.3858 10.1646 23.4553 10.1989C23.4891 10.2156 23.5564 10.2476 23.645 10.2789C23.6904 10.295 23.7584 10.317 23.8427 10.3361C23.9212 10.3538 24.0572 10.3791 24.2283 10.3791V6.87911ZM13.5354 20.8321L13.2029 20.8534L12.9799 17.3605L13.3124 17.3392L13.5354 20.8321ZM11.3827 19.485L11.3608 19.3859L14.7781 18.6298L14.8001 18.7288L11.3827 19.485ZM11.3604 19.3839C11.3061 19.1374 11.2653 18.6993 11.2372 18.3691C11.2037 17.9758 11.1712 17.5103 11.15 17.0983L14.6454 16.9187C14.6645 17.2888 14.6941 17.715 14.7245 18.0719C14.7398 18.2505 14.7546 18.4043 14.7675 18.5208C14.7838 18.6675 14.7895 18.6816 14.7786 18.6317L11.3604 19.3839ZM11.1499 17.095C11.0946 15.9775 11.1395 14.429 11.2593 13.4487L14.7335 13.8733C14.6414 14.6269 14.5986 15.973 14.6456 16.922L11.1499 17.095ZM11.2587 13.454L11.2806 13.27L14.756 13.684L14.7341 13.868L11.2587 13.454ZM13.0183 11.727H13.2302V15.227H13.0183V11.727ZM13.2302 11.727C14.2426 11.727 16.011 11.4062 17.1666 10.9889L18.3555 14.2807C16.8657 14.8188 14.6952 15.227 13.2302 15.227V11.727ZM17.1819 10.9834C17.3087 10.9389 17.441 10.8957 17.5569 10.8625C17.6099 10.8473 17.6897 10.8253 17.7761 10.8075C17.8132 10.7998 17.9003 10.7825 18.0085 10.7733C18.0592 10.769 18.1686 10.7614 18.3058 10.7724C18.3669 10.7773 18.7855 10.802 19.1987 11.1022L17.1418 13.9339C17.3743 14.1029 17.595 14.1754 17.7166 14.2079C17.8478 14.243 17.9574 14.2557 18.0253 14.2612C18.1582 14.2718 18.2619 14.2644 18.3058 14.2606C18.4004 14.2526 18.4692 14.2382 18.4838 14.2352C18.5252 14.2267 18.5433 14.2207 18.5223 14.2267C18.4903 14.2359 18.4252 14.2564 18.3401 14.2862L17.1819 10.9834ZM15.8793 28.886H15.7149V25.386H15.8793V28.886ZM14.158 27.9351L13.8474 27.33L16.9612 25.7318L17.2718 26.3369L14.158 27.9351ZM13.8513 27.3377C13.2155 26.1138 12.6302 24.6884 12.2365 23.4018L15.5832 22.3775C15.9129 23.4548 16.4165 24.6833 16.9572 25.7241L13.8513 27.3377ZM12.2352 23.3976C12.0748 22.8686 11.746 21.6143 11.6737 21.2218L15.1157 20.5872C15.1155 20.5865 15.1167 20.5931 15.1201 20.6091C15.1233 20.6243 15.1277 20.6442 15.1333 20.6691C15.1446 20.7193 15.1595 20.7824 15.1775 20.857C15.2136 21.0058 15.2594 21.1877 15.3091 21.3791C15.4103 21.7688 15.5183 22.1634 15.5845 22.3818L12.2352 23.3976ZM11.6789 21.249L11.6533 21.1216L15.0848 20.4326L15.1104 20.56L11.6789 21.249ZM13.2525 19.031L13.8882 18.9886L14.1215 22.4808L13.4857 22.5232L13.2525 19.031ZM32.2018 31.5245C31.7641 31.8032 31.165 32.1495 30.6767 32.4179C30.4319 32.5524 30.1967 32.6775 30.0105 32.7699C29.9227 32.8136 29.8172 32.8643 29.7165 32.9062C29.6746 32.9236 29.5789 32.9626 29.4625 32.9952C29.4135 33.0089 29.2781 33.0457 29.1025 33.0585C29.0156 33.0648 28.8457 33.0713 28.6374 33.031C28.442 32.9931 28.0432 32.8809 27.6964 32.5145L30.2383 30.1086C29.8928 29.7435 29.4959 29.6322 29.3031 29.5949C29.0974 29.555 28.9309 29.5617 28.848 29.5677C28.6804 29.5799 28.5555 29.6146 28.5196 29.6246C28.4673 29.6392 28.4288 29.653 28.4116 29.6593C28.3919 29.6665 28.3786 29.672 28.3738 29.674C28.364 29.678 28.3857 29.6691 28.4532 29.6355C28.5777 29.5737 28.7656 29.4744 28.9908 29.3507C29.4425 29.1024 29.9707 28.7958 30.3221 28.5721L32.2018 31.5245ZM27.7438 28.6751C28.0862 29.4007 28.3899 30.056 28.6071 30.5355C28.715 30.7736 28.8052 30.9767 28.8691 31.126C28.8998 31.1975 28.9316 31.2737 28.9575 31.3412C28.9683 31.3694 28.9912 31.4296 29.0126 31.4998C29.0208 31.5267 29.0473 31.614 29.0666 31.7268C29.075 31.7759 29.0961 31.9077 29.0911 32.0769C29.0885 32.1625 29.078 32.3154 29.0267 32.4985C28.9779 32.6723 28.859 32.9928 28.5589 33.2834L26.1239 30.7693C25.8241 31.0597 25.7054 31.3797 25.6568 31.553C25.6056 31.7355 25.5952 31.8877 25.5926 31.9725C25.5876 32.1401 25.6086 32.2696 25.6165 32.3161C25.6348 32.4233 25.6594 32.5031 25.6646 32.5202C25.6738 32.5502 25.6814 32.5718 25.6843 32.5799C25.6877 32.5896 25.6899 32.5953 25.6901 32.5957C25.6902 32.596 25.6873 32.5885 25.6799 32.5706C25.6729 32.5535 25.6635 32.5312 25.6514 32.503C25.6019 32.3873 25.5234 32.2104 25.4189 31.9797C25.2114 31.5214 24.9158 30.8834 24.5786 30.1688L27.7438 28.6751ZM28.5588 33.2835C28.4065 33.4309 28.2603 33.5167 28.2333 33.5329C28.1787 33.5656 28.1322 33.5897 28.1053 33.6032C28.0501 33.631 27.9994 33.6535 27.9667 33.6676C27.8974 33.6976 27.8199 33.7284 27.7479 33.7562C27.5994 33.8137 27.4112 33.8827 27.2149 33.9525C26.8271 34.0904 26.3515 34.2515 26.0186 34.3508L25.0176 30.997C25.2657 30.923 25.6761 30.785 26.042 30.6549C26.2225 30.5907 26.3779 30.5334 26.4853 30.4919C26.5413 30.4703 26.5698 30.4584 26.5777 30.455C26.5836 30.4524 26.5643 30.4605 26.5324 30.4766C26.5172 30.4842 26.4804 30.503 26.4334 30.5312C26.4094 30.5456 26.3718 30.5689 26.3273 30.6005C26.2879 30.6283 26.2109 30.6851 26.124 30.7692L28.5588 33.2835ZM26.0235 34.3493C25.3008 34.5673 24.1409 34.8551 23.4212 34.9914L22.77 31.5525C23.3584 31.4411 24.3981 31.1839 25.0127 30.9985L26.0235 34.3493ZM23.4243 34.9908C22.9759 35.0765 22.5488 35.1476 22.2128 35.1934C22.0481 35.2159 21.8834 35.2353 21.7401 35.246C21.6718 35.2511 21.5771 35.2566 21.4757 35.2554C21.4262 35.2548 21.3446 35.2523 21.2479 35.2404C21.1922 35.2335 20.95 35.2053 20.6777 35.0735L22.2031 31.9234C22.0525 31.8504 21.9238 31.8154 21.8544 31.7989C21.778 31.7807 21.7152 31.7715 21.6755 31.7666C21.598 31.7571 21.5404 31.7559 21.5196 31.7557C21.4754 31.7551 21.4564 31.7574 21.4802 31.7557C21.5211 31.7526 21.606 31.7438 21.7396 31.7256C22 31.69 22.364 31.6301 22.767 31.5531L23.4243 34.9908ZM20.6778 35.0735C20.5475 35.0104 20.4333 34.9329 20.4286 34.9299C20.387 34.9025 20.343 34.8724 20.3024 34.8442C20.2198 34.7868 20.1224 34.7172 20.0283 34.6489L22.0852 31.8171C22.1665 31.8762 22.2427 31.9305 22.2989 31.9695C22.3278 31.9895 22.3445 32.0008 22.3508 32.0049C22.3543 32.0072 22.348 32.003 22.3352 31.9951C22.3286 31.9911 22.3157 31.9833 22.2982 31.9733C22.2836 31.965 22.2493 31.9457 22.2031 31.9233L20.6778 35.0735ZM20.0223 34.6445C18.3835 33.4435 16.9008 31.946 15.6447 30.246L18.4596 28.1661C19.5201 29.6014 20.7558 30.8428 22.0913 31.8215L20.0223 34.6445ZM36.0029 31.8632L35.8824 32.0012L33.2466 29.6984L33.3672 29.5604L36.0029 31.8632ZM32.8271 30.6401L32.8929 30.0952L36.3677 30.5145L36.3019 31.0595L32.8271 30.6401ZM32.893 30.0938C32.9286 29.8007 32.9641 29.485 32.9757 29.3835L36.4529 29.7824C36.4426 29.872 36.405 30.2074 36.3675 30.5159L32.893 30.0938ZM37.2108 13.0039C36.3482 10.8978 35.5595 9.62446 33.9353 8.05146L36.3702 5.53725C38.3967 7.49981 39.4354 9.20108 40.4496 11.6773L37.2108 13.0039ZM38.8302 14.0906H37.0911V10.5906H38.8302V14.0906ZM14.3117 20.7737C14.1074 20.7951 14.0065 20.8053 13.8937 20.8118C13.7876 20.8179 13.7726 20.8166 13.5378 20.832L13.3099 17.3394C13.5459 17.324 13.6704 17.3189 13.6927 17.3176C13.7083 17.3167 13.7247 17.316 13.9467 17.2927L14.3117 20.7737ZM14.4145 22.4522C14.3561 22.4632 14.2995 22.4706 14.2989 22.4707C14.2544 22.4767 14.2935 22.4715 14.3175 22.4676C14.3233 22.4667 14.3505 22.4623 14.3852 22.4553C14.3988 22.4526 14.4441 22.4434 14.5011 22.4277C14.5269 22.4206 14.5896 22.403 14.6671 22.3731C14.7058 22.3582 14.7739 22.3305 14.8549 22.2877C14.9169 22.2549 15.0885 22.1613 15.2651 21.9875C15.4118 21.8432 15.8665 21.3381 15.7765 20.5434C15.6866 19.7494 15.1314 19.3588 14.9568 19.2511C14.7463 19.1212 14.5585 19.0681 14.4908 19.0499C14.4024 19.0262 14.33 19.0143 14.289 19.0084C14.1538 18.9888 14.044 18.9903 14.0386 18.9903C13.9841 18.9902 13.9412 18.9929 13.937 18.9932C13.9041 18.9951 13.8772 18.9978 13.8914 18.9965C13.898 18.9959 13.9163 18.9941 13.958 18.99L14.3005 22.4732C14.2616 22.4771 14.2313 22.48 14.2112 22.4818C14.2058 22.4823 14.1983 22.483 14.1901 22.4837C14.1859 22.4841 14.1655 22.4858 14.1408 22.4872C14.1357 22.4875 14.0921 22.4903 14.0372 22.4903C14.0316 22.4903 13.9217 22.4917 13.7864 22.4721C13.7453 22.4662 13.6729 22.4542 13.5845 22.4305C13.5168 22.4124 13.3289 22.3593 13.1185 22.2294C12.9439 22.1217 12.3886 21.7311 12.2987 20.9371C12.2088 20.1424 12.6634 19.6373 12.8102 19.4929C12.9868 19.3191 13.1584 19.2255 13.2204 19.1927C13.3015 19.1499 13.3695 19.1222 13.4083 19.1073C13.4858 19.0774 13.5485 19.0597 13.5744 19.0526C13.6316 19.0369 13.677 19.0277 13.6909 19.0249C13.726 19.0178 13.7539 19.0133 13.7606 19.0122C13.78 19.0091 13.7959 19.0069 13.7992 19.0064C13.8053 19.0056 13.8107 19.0048 13.8134 19.0045C13.8225 19.0032 13.8209 19.0035 13.8249 19.0029C13.8445 19.0002 13.8097 19.0045 13.7645 19.013L14.4145 22.4522ZM15.8792 19.0332V20.7316H12.3792V19.0332H15.8792ZM13.9621 18.9852L14.0467 18.9831L14.1323 22.4821L14.0476 22.4841L13.9621 18.9852ZM17.5778 26.7146C17.6499 27.0054 17.6834 27.0934 17.7904 27.31L14.6527 28.8607C14.4227 28.3954 14.3072 28.0669 14.1808 27.5574L17.5778 26.7146ZM24.5803 30.1725L24.3498 29.687L27.5115 28.1858L27.7421 28.6713L24.5803 30.1725ZM27.6305 32.4409C27.5643 32.3625 27.52 32.2956 27.5066 32.2752C27.487 32.2456 27.4721 32.2211 27.4637 32.2071C27.4469 32.1788 27.4342 32.1558 27.4284 32.1451C27.4157 32.122 27.4054 32.102 27.4003 32.092C27.3888 32.0694 27.3769 32.0454 27.3669 32.025C27.3458 31.9821 27.3183 31.9251 27.2866 31.8591C27.2226 31.7258 27.134 31.5393 27.0292 31.3182C26.8193 30.8751 26.5408 30.2841 26.2573 29.6805L29.4251 28.1923C29.7078 28.7941 29.9846 29.3814 30.1923 29.8199C30.2964 30.0395 30.3821 30.2197 30.4422 30.3451C30.4726 30.4085 30.4946 30.454 30.5085 30.4823C30.516 30.4975 30.518 30.5013 30.5164 30.4982C30.5162 30.4979 30.51 30.4856 30.5004 30.468C30.496 30.4601 30.4846 30.4392 30.4687 30.4127C30.4609 30.3994 30.4464 30.3757 30.4272 30.3466C30.4142 30.3268 30.3701 30.2603 30.3042 30.1822L27.6305 32.4409ZM27.8412 30.6864H25.9307V27.1864H27.8412V30.6864ZM34.3012 29.9867C34.1365 30.165 33.8871 30.3501 33.7955 30.4192L31.6881 27.6248C31.7179 27.6023 31.7439 27.5824 31.766 27.5652C31.7884 27.5479 31.805 27.5347 31.8164 27.5255C31.822 27.5209 31.8254 27.5181 31.827 27.5168C31.8287 27.5153 31.8272 27.5166 31.8231 27.5201C31.8195 27.5233 31.8102 27.5316 31.7971 27.5439C31.7904 27.5503 31.7814 27.5589 31.7709 27.5695C31.7605 27.5799 31.7466 27.5941 31.7304 27.6116L34.3012 29.9867ZM33.7955 30.4192C33.3875 30.7269 32.6893 31.2153 32.1991 31.5262L30.3248 28.5704C30.7277 28.3149 31.3481 27.8812 31.6881 27.6248L33.7955 30.4192ZM34.1199 30.1569L33.8459 30.3797L31.6377 27.6642L31.9117 27.4414L34.1199 30.1569ZM33.0822 27.3054L35.0991 27.7054L34.4183 31.1385L32.4014 30.7386L33.0822 27.3054ZM17.6275 27.0433L18.4581 28.1641L15.6462 30.2481L14.8156 29.1273L17.6275 27.0433ZM30.8198 14.2841L28.4046 14.2487L28.4559 10.749L30.8711 10.7844L30.8198 14.2841ZM20.4524 13.4655L18.8411 14.1343L17.4994 10.9017L19.1107 10.2329L20.4524 13.4655ZM33.0271 29.1183L33.0715 28.9572L36.4458 29.8866L36.4015 30.0477L33.0271 29.1183ZM33.3617 29.5667L34.8981 27.7911L37.5448 30.0813L36.0084 31.8569L33.3617 29.5667ZM35.3715 29.8543C35.6545 29.505 36.2722 28.6183 36.596 28.0977L39.568 29.9463C39.1941 30.5473 38.4925 31.5619 38.091 32.0576L35.3715 29.8543ZM36.3021 27.188L38.1626 27.2738L38.0013 30.7701L36.1409 30.6843L36.3021 27.188Z"
    fill="#FD9843"
    mask="url(#path-1-inside-1_694_302)"
  />
<path
    d="M19.5722 21.2855V20.148H20.4239C21.1537 20.148 21.6549 20.0406 21.9274 19.8258C22.4394 19.414 22.6954 18.7968 22.6954 17.9744C22.6954 16.5147 22.0579 15.7849 20.7831 15.7849C19.7261 15.7849 19.0779 16.4073 18.8384 17.6522H17.4855C17.6075 16.8702 17.8692 16.2246 18.2706 15.7155C18.8829 14.9559 19.7204 14.5762 20.7831 14.5762C21.6748 14.5762 22.4097 14.8426 22.9878 15.3754C23.6731 16.0009 24.0158 16.85 24.0158 17.9228C24.0158 19.3659 23.3949 20.3105 22.1532 20.7568C23.6515 21.3584 24.4006 22.4562 24.4006 24.05C24.4006 25.0706 24.1218 25.9078 23.5642 26.5617C22.896 27.3557 21.9776 27.7526 20.8088 27.7526C19.7119 27.7526 18.8378 27.3616 18.1868 26.5795C17.7078 26.0063 17.4182 25.2154 17.3179 24.2066H18.7204C18.8378 25.7542 19.534 26.5279 20.8088 26.5279C21.3994 26.5279 21.8949 26.3541 22.2951 26.0063C22.7968 25.5601 23.0477 24.908 23.0477 24.05C23.0477 22.207 22.1731 21.2855 20.4239 21.2855H19.5722ZM26.0033 16.2887V14.9322H32.8431V15.9486C31.2399 20.0809 30.0375 23.8969 29.2359 27.3966H27.6812C28.55 24.1983 29.781 20.4957 31.3739 16.2887H26.0033ZM37.9795 14.5762C39.0433 14.5762 39.8814 15.1351 40.4937 16.253C41.1448 17.441 41.4704 19.0781 41.4704 21.1644C41.4704 23.2044 41.1614 24.8125 40.5433 25.9885C39.931 27.1646 39.0764 27.7526 37.9795 27.7526C36.8882 27.7526 36.045 27.1818 35.4498 26.0402C34.8089 24.8237 34.4885 23.1926 34.4885 21.1466C34.4885 18.9796 34.842 17.2932 35.549 16.0875C36.1453 15.0799 36.9555 14.5762 37.9795 14.5762ZM37.9795 15.8792C36.61 15.8792 35.9253 17.635 35.9253 21.1466C35.9253 24.6819 36.6157 26.4496 37.9966 26.4496C39.3546 26.4496 40.0336 24.6997 40.0336 21.2C40.0336 17.6528 39.3489 15.8792 37.9795 15.8792ZM46.5314 14.5762C47.5953 14.5762 48.4334 15.1351 49.0457 16.253C49.6968 17.441 50.0223 19.0781 50.0223 21.1644C50.0223 23.2044 49.7133 24.8125 49.0953 25.9885C48.483 27.1646 47.6284 27.7526 46.5314 27.7526C45.4402 27.7526 44.597 27.1818 44.0018 26.0402C43.3609 24.8237 43.0405 23.1926 43.0405 21.1466C43.0405 18.9796 43.394 17.2932 44.101 16.0875C44.6973 15.0799 45.5075 14.5762 46.5314 14.5762ZM46.5314 15.8792C45.162 15.8792 44.4772 17.635 44.4772 21.1466C44.4772 24.6819 45.1677 26.4496 46.5485 26.4496C47.9066 26.4496 48.5856 24.6997 48.5856 21.2C48.5856 17.6528 47.9009 15.8792 46.5314 15.8792ZM56.0275 27.3966H54.6233V16.7497C54.1946 17.0499 53.5965 17.3686 52.8291 17.7056V16.2708C53.7197 15.9291 54.4375 15.4828 54.9825 14.9322H56.0275V27.3966Z"
    fill="#FD9843"
    stroke="#FD9843"
    stroke-width="2.5"
  />
</svg>
