<svg
  width="1326"
  height="1360"
  viewBox="0 0 1326 1360"
  fill="none"
  xmlns="http://www.w3.org/2000/svg"
>
<path
    d="M626.667 0.799994C460 12.5333 315.2 77.8667 200 193.333C50.6668 342.933 -20.7999 553.2 5.46681 765.6C22.4001 903.333 80.2668 1032.27 172.267 1136.8C199.333 1167.73 241.2 1206.13 276 1231.87C359.867 1293.87 459.2 1335.87 560.667 1351.87C597.867 1357.73 617.6 1359.2 662 1359.2C705.467 1359.33 720.8 1358.4 756.534 1353.2C923.734 1329.2 1075.07 1240.27 1182.27 1103.07C1195.87 1085.73 1223.2 1044.8 1234.67 1024.93C1239.2 1016.93 1248.53 998.933 1255.47 984.933C1323.87 846.4 1343.2 686.667 1310.13 533.2C1282.27 403.733 1218.4 286.4 1124.67 192.667C1017.2 85.0667 880.267 19.7333 728 3.33333C709.6 1.33333 642.667 -0.266672 626.667 0.799994ZM729.467 67.2C750.134 69.8667 775.867 74.1333 776.934 75.2C778.667 76.9333 757.2 113.733 741.6 135.733C727.334 155.733 716.934 169.2 715.467 169.333C714.8 169.333 705.867 164.267 695.467 158.267C642 126.533 584.267 101.6 530.667 87.2C523.734 85.2 517.467 83.3333 516.667 82.9333C512.4 80.4 583.867 67.7333 619.333 64.9333C636 63.4667 713.334 65.0667 729.467 67.2ZM860.8 98.1333C907.067 114.8 955.067 139.467 994.8 166.933C1013.73 179.867 1036 197.067 1036.8 199.2C1037.6 201.467 1027.73 221.467 1013.87 245.6C993.867 280.4 965.334 321.333 940.8 350.533C925.467 368.667 924.267 370 923.734 369.333C880 310.267 830.267 257.333 782 218.8C776.134 214.133 770.534 209.467 769.6 208.667C768 207.2 769.867 204.133 779.734 191.2C800.4 163.733 822.667 128.267 835.467 102.267C838.267 96.6667 841.334 92 842.267 92C843.2 92 851.6 94.8 860.8 98.1333ZM484 140.933C531.334 151.6 577.467 168.267 622.4 190.667C650.267 204.667 670 216 670 218.133C670 221.6 628.533 256.8 602.267 275.467C581.733 290.133 536.667 317.333 535.467 315.867C534.667 314.8 453.334 136.133 453.334 135.333C453.334 134.267 459.734 135.467 484 140.933ZM437.334 253.867C468.4 321.733 477.2 342 475.734 342.8C472.134 345.2 437.067 356.133 418.934 360.533C389.867 367.733 351.734 373.333 332.4 373.333C326.134 373.333 325.2 373.067 325.867 370.933C326.134 369.733 327.467 363.6 328.667 357.333C334.667 326.267 348.267 278.133 359.867 246.4C373.2 210.133 394.134 162.933 396.134 164.933C396.8 165.6 415.334 205.6 437.334 253.867ZM318.8 177.6C318.134 179.333 314.934 187.2 311.6 195.333C292.534 242 276.133 296.933 265.467 349.867C263.2 360.8 261.2 369.867 260.8 370.267C259.733 371.333 227.467 365.067 210.667 360.533C194.667 356.133 166.8 346.533 162.8 344C161.2 343.067 162.267 340.667 168.533 331.067C204 277.6 254.534 223.733 306.534 184.133C313.334 178.933 319.2 174.667 319.467 174.667C319.734 174.667 319.467 176 318.8 177.6ZM1094.8 252.933C1120.8 279.867 1150.67 319.467 1174 358C1185.07 376.4 1209.33 424.533 1209.33 428.133C1209.33 432 1196.53 460.667 1183.47 486C1165.07 521.6 1139.6 562.4 1116.8 592.667C1094.53 622.267 1066.93 654.267 1065.33 652.4C1064.8 651.867 1062.13 644.4 1059.33 636C1037.6 569.467 1005.47 498.667 970.534 440.4C965.467 431.867 961.334 424.667 961.334 424.133C961.467 423.733 963.867 420.667 966.8 417.333C995.6 385.2 1021.47 352 1043.07 319.2C1057.07 297.733 1075.2 267.067 1082.13 252.933C1084.27 248.8 1086.27 245.333 1086.67 245.333C1087.07 245.333 1090.8 248.8 1094.8 252.933ZM748 272.933C775.067 295.6 811.334 331.333 834 358C851.067 378.133 878.667 413.867 878.667 416C878.667 417.467 848.934 444 831.334 458.133C799.734 483.6 757.6 512.533 722.667 532.667C703.6 543.6 652.133 570 651.467 569.2C650.667 568.4 563.733 378.133 563.067 376C562.667 374.533 567.467 371.333 579.333 364.8C610 347.867 649.333 321.2 674.667 300.133C686.8 290 713.6 266 719.334 260.133C722.134 257.067 724.934 254.667 725.334 254.667C725.734 254.667 735.867 262.933 748 272.933ZM144.133 405.2C170.4 415.867 207.733 426.267 238 431.333C245.333 432.533 251.6 433.867 251.867 434.133C252.133 434.4 251.733 442.933 250.8 452.933C246.667 498.4 247.6 585.333 252.667 632C253.733 641.067 254.4 648.667 254.267 648.8C253.6 649.333 216.667 646.533 200 644.533C176.267 641.867 145.333 636.8 125.733 632.667C104 628 68.9335 618.8 67.4668 617.333C66.1335 616 69.3335 590.267 74.0002 564.533C83.3335 513.733 100.4 459.867 122 413.6C125.467 406.133 129.067 400 129.867 400C130.8 400 137.2 402.4 144.133 405.2ZM548.533 497.067C572.4 549.333 592 592.667 592 593.333C592 594.933 556.4 607.067 528 615.333C462.8 634 406.267 643.6 331.067 648.667L318.934 649.467L318.134 645.733C316.4 637.6 313.334 599.867 311.867 570.4C310 531.467 311.6 476.933 315.467 444.267L316.267 437.333H324C369.2 437.333 441.067 423.6 489.334 405.6C497.067 402.8 503.734 400.8 504.267 401.2C504.667 401.6 524.667 444.8 548.533 497.067ZM925.867 489.733C949.2 530.933 974 585.6 991.334 633.333C999.867 657.2 1013.33 700.4 1013.33 704.267C1013.33 709.2 960.267 752.4 920 780.267C900.8 793.6 867.067 814.267 844 826.933C816.8 842 784.267 858.133 783.334 857.067C781.734 855.6 678.533 628.933 678.933 628C679.2 627.467 692.8 620.133 709.334 611.733C780.8 575.467 844.267 532.533 902 481.6C908.667 475.733 914.4 471.2 914.934 471.467C915.467 471.867 920.4 480 925.867 489.733ZM1244.53 530.267C1258.4 589.6 1264.27 649.067 1261.47 704L1260.27 728.667L1253.47 744.533C1228 803.467 1191.47 863.2 1150.67 912C1139.07 925.867 1114.27 953.333 1113.2 953.333C1112.8 953.333 1112 940.933 1111.6 925.6C1109.87 869.733 1103.47 817.333 1091.2 756.133L1085.2 726.4L1095.33 715.467C1144.27 662.8 1170.4 629.867 1200.8 582.667C1212.27 565.067 1230.93 532.933 1236.13 522.267C1237.87 518.8 1239.6 516 1240.13 516C1240.67 516 1242.67 522.4 1244.53 530.267ZM671.067 765.333C699.6 827.6 723.2 879.6 723.467 880.933C724 883.067 720.934 884.533 703.734 890.933C649.867 910.667 590.8 926.8 532.8 937.467C494.8 944.4 436.534 952 420.667 952H414.667L403.334 929.2C381.867 886.533 362 836.533 348.8 792C343.2 772.933 332 728.4 330 717.2L329.067 712.4L352.267 710.8C432.934 705.2 515.733 688 593.333 660.933C606.933 656.133 618.267 652.267 618.667 652.133C619.067 652 642.667 702.933 671.067 765.333ZM114.667 695.2C160.267 704.533 220.933 712 252 712C258.667 712 262.8 712.533 263.6 713.6C264.267 714.533 266.267 721.867 267.867 730C281.467 797.067 305.867 871.067 335.2 934.267C340 944.667 344 953.733 344 954.533C344 956.267 346.534 956.267 303.334 954.667C241.734 952.267 192.533 946.533 134.8 934.667C124.267 932.4 115.467 930.533 115.2 930.4C113.867 928.933 101.2 895.867 95.3335 878.133C77.0668 823.067 66.4001 763.467 64.4001 707.067L63.6001 682.933L80.8002 687.333C90.2668 689.733 105.467 693.333 114.667 695.2ZM1035.87 804.933C1044.93 858.8 1048.53 903.867 1048.67 964.133C1048.67 1009.87 1048.53 1011.87 1046 1014.67C1041.47 1019.73 1004.4 1047.07 982 1061.73C953.2 1080.67 899.734 1110.93 898.267 1109.33C897.067 1107.87 810.667 917.867 810.667 916.667C810.667 915.867 819.734 910.8 830.934 905.333C898.267 872.133 965.067 829.467 1018.67 785.467C1028.53 777.333 1030.13 776.533 1030.93 778.667C1031.47 780.133 1033.73 791.867 1035.87 804.933ZM795.867 1038.13C820.667 1092.4 839.6 1135.6 838.934 1136.27C837.067 1138.13 793.6 1154.13 772.4 1160.67C748 1168.27 707.867 1178.53 684 1183.2C652.933 1189.33 626.267 1193.07 623.6 1191.73C622.267 1191.07 616 1186.53 609.6 1181.73C555.333 1140.67 505.734 1089.07 463.467 1030C450.534 1011.87 450.4 1012.93 466.667 1011.47C514.4 1006.93 589.867 992.133 646.667 976C674 968.133 725.467 951.067 740.667 944.8C745.067 942.933 749.334 941.467 750.134 941.333C750.934 941.333 771.467 984.933 795.867 1038.13ZM1191.6 971.067C1169.47 1013.73 1141.2 1054.93 1107.6 1093.87L1103.2 1099.07L1105.6 1078.53C1106.93 1067.2 1108.27 1054.93 1108.67 1051.33C1109.47 1044.93 1109.87 1044.27 1122.13 1033.33C1138.53 1018.8 1176.13 980.133 1190 963.733C1195.87 956.8 1200.93 951.2 1201.2 951.467C1201.47 951.733 1197.2 960.533 1191.6 971.067ZM186 1007.87C239.067 1015.47 284.934 1018.67 342.267 1018.67H380L385.6 1027.6C420.934 1084 467.734 1141.07 512.667 1182.67L529.2 1198L512.934 1198.4C469.734 1199.6 399.2 1191.07 348 1178.67C325.467 1173.2 295.067 1164.27 290.4 1161.87C288.267 1160.8 281.6 1155.6 275.6 1150.27C247.6 1125.73 222.267 1099.2 198.933 1070C185.2 1052.8 153.333 1006.53 153.333 1003.87C153.333 1003.07 154.4 1002.8 155.733 1003.2C156.933 1003.6 170.667 1005.73 186 1007.87ZM1036 1116.8C1032.93 1133.33 1027.47 1160 1025.33 1168C1024.27 1171.87 1021.87 1174.4 1013.07 1180.8C987.2 1199.73 951.067 1222.27 949.334 1220.53C946.8 1217.87 924.934 1167.47 926.134 1167.07C926.8 1166.8 936.8 1161.6 948.4 1155.33C974.667 1141.2 1007.2 1121.6 1024.67 1109.6C1032 1104.53 1038.13 1100.53 1038.4 1100.67C1038.67 1100.93 1037.6 1108.13 1036 1116.8ZM880 1222.13C890 1244.27 892.134 1249.87 890.534 1250.8C885.867 1253.6 843.6 1268.53 823.867 1274.13L802.134 1280.4L788.667 1276C771.067 1270.27 738.667 1257.47 722 1249.47L708.667 1243.2L727.334 1238.8C765.334 1229.87 817.6 1213.6 851.334 1200.13C858.667 1197.2 865.334 1194.8 866.134 1194.8C866.8 1194.67 873.067 1207.07 880 1222.13ZM620 1265.87C634.667 1275.07 652.667 1285.6 663.067 1291.07L671.333 1295.33L651.333 1295.73C618.8 1296.27 571.867 1290.8 532.934 1281.87C514.4 1277.6 480.4 1267.73 469.334 1263.47L460.667 1260L468 1261.07C478.534 1262.4 573.067 1261.87 587.333 1260.4C608.133 1258.13 607.467 1258 620 1265.87Z"
    fill="#FD9843"
  />
</svg>
